<?xml version="1.0" encoding="UTF-8"?>
<svg width="14px" height="14px" viewBox="0 0 14 14" version="1.1" xmlns="http://www.w3.org/2000/svg" xmlns:xlink="http://www.w3.org/1999/xlink">
    <!-- Generator: Sketch 53.1 (72631) - https://sketchapp.com -->
    <title>gg_coins</title>
    <desc>Created with Sketch.</desc>
    <defs>
        <polygon id="path-1" points="0 13.9913402 0 0.0115463918 13.9884536 0.0115463918 13.9884536 13.9913402"></polygon>
    </defs>
    <g id="GG-Store" stroke="none" stroke-width="1" fill="none" fill-rule="evenodd">
        <g id="GGStore-002" transform="translate(-801.000000, -510.000000)">
            <g id="Group-9-Copy-3" transform="translate(445.000000, 458.000000)">
                <g id="GG-Coins-Copy" transform="translate(356.000000, 52.000000)">
                    <g id="gg_coins">
                        <path d="M13.7953402,7.0057732 C13.7902887,7.34812371 13.7583918,7.68946392 13.7003711,8.02690722 C13.6009278,8.56569072 13.4434639,9.0917732 13.2302887,9.59635052 L13.5714845,7.02540206 C13.5377113,3.38742268 10.5650928,0.463587629 6.9271134,0.48985567 C3.29014433,0.463587629 0.317958763,3.38569072 0.282597938,7.02251546 L0.030742268,7.02251546 C0.0676907216,3.24771134 3.15216495,0.214618557 6.9271134,0.240886598 C10.6861856,0.206969072 13.7612784,3.22663918 13.7951959,6.98571134 L13.7953402,7.0057732" id="Fill-1" fill="#EDCB45"></path>
                        <g id="Group-6">
                            <mask id="mask-2" fill="white">
                                <use xlink:href="#path-1"></use>
                            </mask>
                            <g id="Clip-3"></g>
                            <path d="M6.9942268,0.0115463918 C10.8570722,0.0115463918 13.9884536,3.10785567 13.9884536,6.92740206 C13.9884536,10.7469485 10.8570722,13.8432577 6.9942268,13.8432577 C3.13138144,13.8432577 0,10.7469485 0,6.92740206 C0,3.10785567 3.13138144,0.0115463918 6.9942268,0.0115463918" id="Fill-2" fill="#D29A2F" mask="url(#mask-2)"></path>
                            <path d="M6.91874227,0.240886598 C10.739732,0.240886598 13.8373402,3.32103093 13.8373402,7.12051546 C13.8373402,10.9198557 10.739732,14 6.91874227,14 C3.09760825,14 0,10.9198557 0,7.12051546 C0,3.32103093 3.09760825,0.240886598 6.91874227,0.240886598" id="Fill-4" fill="#D29A2F" mask="url(#mask-2)"></path>
                            <path d="M12.8218351,8.48847423 C13.0658969,8.56583505 13.2012784,8.82635052 13.1240619,9.0705567 C13.046701,9.31461856 12.7861856,9.45 12.5419794,9.37249485 L12.5224948,9.37249485 C12.4409485,9.58480412 12.347567,9.79220619 12.2426392,9.99369072 L12.262268,9.99369072 C12.4783299,10.1260412 12.5463093,10.4084948 12.4139588,10.6245567 L12.4021237,10.6427423 C12.2651546,10.8429278 11.9977113,10.9048454 11.786701,10.7853402 L11.7670722,10.7853402 C11.6552165,10.9364536 11.5367216,11.0829485 11.4118763,11.2246804 L11.4286186,11.241567 C11.6094639,11.4190928 11.6119175,11.7096289 11.4343918,11.8903299 L11.4286186,11.8961031 C11.2464742,12.0763711 10.9531959,12.0763711 10.7710515,11.8961031 L10.7543093,11.8793608 C10.5938144,11.9876082 10.4325979,12.0984536 10.2702268,12.2121856 L10.2702268,12.2318144 C10.403732,12.447299 10.3373402,12.7300412 10.122,12.8635464 L10.1165155,12.866866 C9.89828866,12.9992165 9.61424742,12.9319588 9.47857732,12.7158969 L9.47857732,12.6738969 C9.28878351,12.7641031 9.09465979,12.8443505 8.89663918,12.9144948 L8.89663918,12.936866 C8.95971134,13.1854021 8.80946392,13.4381237 8.56078351,13.5013402 C8.33230928,13.5593608 8.09661856,13.4369691 8.01261856,13.2165773 L8.01261856,13.1523505 C7.78327835,13.1962268 7.55148454,13.2271134 7.31868041,13.2447216 L7.31868041,13.2696907 C7.31868041,13.5263093 7.11070103,13.7341443 6.85408247,13.734 C6.59789691,13.7338557 6.39006186,13.5261649 6.38991753,13.2696907 L6.38991753,13.2447216 C6.14787629,13.230866 5.90684536,13.202866 5.66812371,13.1607216 L5.66812371,13.1858351 C5.60245361,13.4337938 5.34814433,13.5815876 5.1003299,13.5159175 C4.86738144,13.4541443 4.72030928,13.2245155 4.76173196,12.9872371 L4.76173196,12.922866 C4.56371134,12.852866 4.3694433,12.7724742 4.17964948,12.682268 L4.17964948,12.7046392 C4.05307216,12.921567 3.77740206,12.9995052 3.55585567,12.880866 C3.33156701,12.7629485 3.24540206,12.4855464 3.36331959,12.2612577 L3.36562887,12.2570722 L3.36562887,12.234701 L3.37962887,12.2121856 C3.21364948,12.0984536 3.05315464,11.9782268 2.89843299,11.8513608 L2.88154639,11.8709897 C2.69954639,12.0512577 2.40626804,12.0512577 2.22412371,11.8709897 C2.04342268,11.6934639 2.04082474,11.4029278 2.21835052,11.2220825 L2.22412371,11.2163093 L2.24375258,11.1966804 C2.11876289,11.0568247 2.00026804,10.9104742 1.88841237,10.7574845 L1.87715464,10.7825979 C1.65459794,10.9096082 1.37127835,10.8335464 1.24224742,10.612 C1.12072165,10.4014227 1.18451546,10.1328247 1.38758763,9.99931959 L1.41010309,9.99931959 C1.30517526,9.79870103 1.21179381,9.59216495 1.13024742,9.38101031 L1.10513402,9.38101031 C0.860927835,9.4582268 0.600412371,9.32298969 0.523195876,9.07878351 C0.445835052,8.83472165 0.581216495,8.57420619 0.825278351,8.49698969 L0.853278351,8.49698969 C0.794536082,8.2276701 0.754412371,7.95474227 0.733051546,7.68008247 L0.705051546,7.68008247 C0.450020619,7.68917526 0.235835052,7.49014433 0.226597938,7.23525773 C0.217360825,6.9802268 0.416536082,6.76604124 0.67142268,6.75680412 L0.733051546,6.75680412 C0.753257732,6.47449485 0.793525773,6.19406186 0.853278351,5.91752577 L0.828164948,5.91752577 C0.583958763,5.84016495 0.448721649,5.57964948 0.525938144,5.33558763 C0.603154639,5.09138144 0.863670103,4.95614433 1.10787629,5.03350515 L1.13024742,5.03350515 C1.21179381,4.82119588 1.30517526,4.61393814 1.41010309,4.41230928 L1.39047423,4.41230928 C1.17845361,4.27346392 1.11927835,3.98898969 1.25812371,3.7771134 L1.26173196,3.77162887 C1.39870103,3.57158763 1.66614433,3.50952577 1.87715464,3.62903093 L1.89678351,3.62903093 C2.00690722,3.47791753 2.12439175,3.33243299 2.24938144,3.19257732 C2.06853608,3.01490722 2.06593814,2.72437113 2.24346392,2.5436701 L2.24938144,2.53789691 C2.43138144,2.35762887 2.72480412,2.35762887 2.90680412,2.53789691 L2.93206186,2.56589691 C3.08678351,2.43715464 3.24901031,2.31505155 3.41874227,2.19929897 L3.41874227,2.1825567 C3.28523711,1.96721649 3.3517732,1.6843299 3.5671134,1.55082474 L3.57259794,1.54750515 C3.79082474,1.41515464 4.07486598,1.48241237 4.21053608,1.69861856 L4.21053608,1.73773196 C4.40018557,1.64752577 4.59445361,1.56727835 4.79247423,1.49713402 C4.79247423,1.49713402 4.79247423,1.49713402 4.79247423,1.48039175 C4.74138144,1.22896907 4.90389691,0.983896907 5.15517526,0.932804124 C5.38465979,0.886329897 5.61298969,1.01781443 5.68775258,1.23979381 L5.68775258,1.25653608 C5.90713402,1.20241237 6.12940206,1.16041237 6.35354639,1.13053608 C6.35369072,0.874206186 6.5616701,0.666371134 6.81814433,0.666371134 C7.07447423,0.666515464 7.28230928,0.874350515 7.28230928,1.13053608 C7.51612371,1.14814433 7.74878351,1.1788866 7.97898969,1.22290722 L7.97898969,1.20616495 C8.06096907,0.963113402 8.32437113,0.832494845 8.56742268,0.914329897 C8.78925773,0.989092784 8.9208866,1.21727835 8.87426804,1.44676289 L8.87426804,1.46350515 C9.07315464,1.53364948 9.26843299,1.61389691 9.45894845,1.70410309 C9.45894845,1.70410309 9.45894845,1.70410309 9.45894845,1.69010309 C9.59476289,1.47404124 9.87865979,1.40678351 10.0968866,1.53898969 C10.3149691,1.66369072 10.3923299,1.94051546 10.2702268,2.16018557 L10.2702268,2.17418557 C10.4380825,2.28791753 10.6004536,2.40828866 10.7570515,2.53501031 C10.9391959,2.35474227 11.2324742,2.35474227 11.4146186,2.53501031 C11.5953196,2.71268041 11.5979175,3.00321649 11.4203918,3.18391753 L11.4146186,3.18969072 C11.5394639,3.32954639 11.6579588,3.47604124 11.7699588,3.62903093 L11.786701,3.62903093 C11.9995876,3.48802062 12.2860825,3.54416495 12.4301237,3.7548866 C12.572,3.9648866 12.516866,4.25008247 12.306866,4.39195876 L12.3013814,4.39556701 L12.2733814,4.41230928 L12.2566392,4.41230928 C12.361567,4.61393814 12.4549485,4.82119588 12.5363505,5.03350515 L12.5559794,5.03350515 C12.8001856,4.95614433 13.060701,5.09138144 13.1379175,5.33558763 C13.2152784,5.57964948 13.0798969,5.84016495 12.8358351,5.91752577 L12.8162062,5.91752577 C12.8759588,6.19406186 12.9160825,6.47449485 12.9365773,6.75680412 L12.9588041,6.75680412 C13.2138351,6.75694845 13.4203711,6.9637732 13.4202268,7.21880412 C13.4199381,7.47340206 13.2136907,7.67993814 12.9588041,7.68008247 L12.9336907,7.68008247 C12.9124742,7.95575258 12.8723505,8.22969072 12.8133196,8.49973196 L12.8218351,8.48847423 M6.83185567,0.406 C3.08519588,0.432268041 0.0689896907,3.49105155 0.095257732,7.23771134 C0.121525773,10.9846598 3.18030928,14.0007216 6.9271134,13.9744536 C10.6541443,13.9483299 13.662268,10.920433 13.6638557,7.19325773 C13.6515876,3.43245361 10.5929485,0.393731959 6.832,0.406" id="Fill-5" fill="#F4DA51" mask="url(#mask-2)"></path>
                        </g>
                        <path d="M6.82925773,0.842453608 C6.98672165,0.842453608 7.11445361,0.968886598 7.11445361,1.12505155 C7.11445361,1.28107216 6.98672165,1.40750515 6.82925773,1.40750515 C6.67150515,1.40750515 6.5437732,1.28107216 6.5437732,1.12505155 C6.5437732,0.968886598 6.67150515,0.842453608 6.82925773,0.842453608" id="Fill-7" fill="#EBBE46"></path>
                        <path d="M8.16286598,1.26678351 C8.20356701,1.11610309 8.36002062,1.02748454 8.51214433,1.06861856 C8.66412371,1.10989691 8.75447423,1.26548454 8.71362887,1.41602062 C8.67292784,1.56670103 8.51647423,1.65531959 8.36435052,1.61418557 C8.2122268,1.57290722 8.12187629,1.41746392 8.16286598,1.26678351" id="Fill-8" fill="#EBBE46"></path>
                        <path d="M9.65494845,1.76847423 C9.73,1.63352577 9.90045361,1.58503093 10.0352577,1.66008247 L10.0437732,1.66498969 C10.179299,1.73903093 10.2293814,1.90890722 10.1553402,2.04457732 L10.15,2.05381443 C10.0749485,2.18876289 9.90449485,2.23740206 9.76954639,2.16220619 L9.76117526,2.1574433 C9.62550515,2.08340206 9.57556701,1.91338144 9.64946392,1.77771134 L9.65494845,1.76847423" id="Fill-9" fill="#EBBE46"></path>
                        <path d="M10.8914227,2.65249485 C10.9986598,2.54136082 11.1757526,2.53804124 11.2870309,2.64527835 L11.2942474,2.65249485 C11.4048041,2.76059794 11.4066804,2.93769072 11.2987216,3.04824742 L11.2942474,3.05257732 C11.1870103,3.16385567 11.0099175,3.16717526 10.8987835,3.05993814 L10.8914227,3.05257732 C10.780866,2.94461856 10.7789897,2.76752577 10.8869485,2.65696907 L10.8914227,2.65249485" id="Fill-10" fill="#EBBE46"></path>
                        <path d="M2.35286598,2.64975258 C2.46010309,2.53847423 2.63719588,2.53529897 2.74847423,2.64253608 L2.75569072,2.64975258 C2.86624742,2.75771134 2.86826804,2.93494845 2.76016495,3.04536082 L2.75569072,3.04983505 C2.64845361,3.1611134 2.47136082,3.16428866 2.3602268,3.05719588 L2.35286598,3.04983505 C2.24245361,2.94173196 2.24043299,2.76463918 2.34853608,2.6542268 L2.35286598,2.64975258" id="Fill-11" fill="#EBBE46"></path>
                        <path d="M11.8818144,3.76325773 C12.0118557,3.67969072 12.1849072,3.71736082 12.2683299,3.84740206 L12.2733814,3.85562887 C12.3557938,3.98624742 12.3166804,4.15901031 12.1860619,4.24142268 L12.1810103,4.24445361 C12.0511134,4.32802062 11.8780619,4.29035052 11.7944948,4.16030928 L11.7895876,4.1522268 C11.7070309,4.02146392 11.7462887,3.84870103 11.8769072,3.76628866 L11.8818144,3.76325773" id="Fill-12" fill="#EBBE46"></path>
                        <path d="M12.6085155,5.18952577 C12.7593402,5.14406186 12.9182474,5.22820619 12.9634227,5.37773196 C13.0083093,5.5271134 12.922433,5.68515464 12.7716082,5.73061856 C12.6206392,5.77608247 12.4618763,5.69179381 12.4168454,5.54226804 C12.3718144,5.3928866 12.4576907,5.23498969 12.6085155,5.18952577" id="Fill-13" fill="#EBBE46"></path>
                        <path d="M6.82925773,12.9844948 C6.98672165,12.9844948 7.11445361,13.1109278 7.11445361,13.2670928 C7.11445361,13.4231134 6.98672165,13.5495464 6.82925773,13.5495464 C6.67150515,13.5495464 6.5437732,13.4231134 6.5437732,13.2670928 C6.5437732,13.1109278 6.67150515,12.9844948 6.82925773,12.9844948" id="Fill-14" fill="#EBBE46"></path>
                        <path d="M8.28107216,12.7450515 C8.43160825,12.7040619 8.58690722,12.7928247 8.62804124,12.9433608 C8.66903093,13.0938969 8.58026804,13.2491959 8.42973196,13.2903299 C8.27905155,13.3313196 8.12375258,13.2425567 8.08276289,13.0920206 C8.0417732,12.9414845 8.13053608,12.7860412 8.28107216,12.7450515" id="Fill-15" fill="#EBBE46"></path>
                        <path d="M9.73317526,12.2121856 C9.86552577,12.1325155 10.0374227,12.1750928 10.1172371,12.3074433 L10.122,12.3158144 C10.2000825,12.4491753 10.1550515,12.6204948 10.0216907,12.698433 L10.0157732,12.7018969 C9.88313402,12.781134 9.71123711,12.7379794 9.632,12.6053402 L9.62969072,12.6011546 C9.54987629,12.4689485 9.59245361,12.2969072 9.72480412,12.2170928 L9.73317526,12.2121856" id="Fill-16" fill="#EBBE46"></path>
                        <path d="M10.8970515,11.3421649 C11.0041443,11.2308866 11.1813814,11.2277113 11.2925155,11.3349485 L11.2998763,11.3421649 C11.410433,11.450268 11.4123093,11.6272165 11.3042062,11.7377732 L11.2998763,11.7422474 C11.1926392,11.8535258 11.0155464,11.856701 10.904268,11.7494639 L10.8970515,11.7422474 C10.7864948,11.6341443 10.7846186,11.4571959 10.8925773,11.3466392 L10.8970515,11.3421649" id="Fill-17" fill="#EBBE46"></path>
                        <path d="M11.7895876,10.2399175 C11.8683918,10.107134 12.0401443,10.0635464 12.1729278,10.1424948 L12.1810103,10.1476907 C12.3136495,10.2272165 12.3560825,10.3992577 12.2765567,10.5316082 L12.2733814,10.5365155 C12.194433,10.669299 12.0228247,10.7128866 11.8900412,10.6339381 L11.8818144,10.6288866 C11.7493196,10.5490722 11.7067423,10.3770309 11.7864124,10.2446804 L11.7895876,10.2399175" id="Fill-18" fill="#EBBE46"></path>
                        <path d="M12.416701,8.84756701 C12.4611546,8.69804124 12.6197732,8.61317526 12.7707423,8.65791753 C12.9218557,8.70294845 13.0083093,8.8605567 12.9637113,9.01008247 C12.9194021,9.15975258 12.7607835,9.24461856 12.6098144,9.19958763 C12.458701,9.15484536 12.3723918,8.99709278 12.416701,8.84756701" id="Fill-19" fill="#EBBE46"></path>
                        <path d="M12.9476907,6.92191753 C13.105299,6.92191753 13.2331753,7.04835052 13.2331753,7.20437113 C13.2331753,7.36039175 13.105299,7.48696907 12.9476907,7.48696907 C12.7900825,7.48696907 12.6623505,7.36039175 12.6623505,7.20437113 C12.6623505,7.04835052 12.7900825,6.92191753 12.9476907,6.92191753" id="Fill-20" fill="#EBBE46"></path>
                        <path d="M5.11620619,1.07756701 C5.26674227,1.03657732 5.42218557,1.12534021 5.46317526,1.27587629 C5.50416495,1.42641237 5.41540206,1.58171134 5.26486598,1.62284536 C5.1143299,1.66383505 4.95903093,1.57507216 4.91789691,1.42453608 C4.87690722,1.274 4.9656701,1.11870103 5.11620619,1.07756701" id="Fill-21" fill="#EBBE46"></path>
                        <path d="M3.64259794,1.69010309 C3.77494845,1.61043299 3.94684536,1.65301031 4.02665979,1.78536082 L4.03142268,1.79373196 C4.10950515,1.92709278 4.06447423,2.09841237 3.9311134,2.17635052 L3.92519588,2.17981443 C3.79284536,2.25948454 3.62080412,2.21690722 3.54113402,2.0845567 L3.5362268,2.07618557 C3.45828866,1.94282474 3.50317526,1.77150515 3.63668041,1.69356701 L3.64259794,1.69010309" id="Fill-22" fill="#EBBE46"></path>
                        <path d="M1.38758763,3.85562887 C1.46668041,3.72270103 1.63828866,3.67925773 1.77121649,3.75820619 L1.77929897,3.76325773 C1.91338144,3.84004124 1.96,4.01092784 1.88321649,4.14501031 L1.87715464,4.15496907 C1.79820619,4.28775258 1.62659794,4.33134021 1.49381443,4.25224742 L1.48558763,4.24719588 C1.35150515,4.1705567 1.30503093,3.99952577 1.3816701,3.8654433 L1.38758763,3.85562887" id="Fill-23" fill="#EBBE46"></path>
                        <path d="M0.693938144,5.3817732 C0.738391753,5.23210309 0.896865979,5.14738144 1.04797938,5.19226804 C1.19909278,5.23715464 1.28554639,5.39476289 1.24109278,5.54428866 C1.19663918,5.69395876 1.03802062,5.77882474 0.887051546,5.73393814 C0.735938144,5.68905155 0.649484536,5.53129897 0.693938144,5.3817732" id="Fill-24" fill="#EBBE46"></path>
                        <path d="M4.94705155,12.9777113 C4.98775258,12.8271753 5.14420619,12.7384124 5.2963299,12.7796907 C5.44845361,12.8208247 5.53865979,12.9764124 5.49781443,13.1269485 C5.4571134,13.2776289 5.30065979,13.3662474 5.14853608,13.3251134 C4.99641237,13.2839794 4.90620619,13.1283918 4.94705155,12.9777113" id="Fill-25" fill="#EBBE46"></path>
                        <path d="M3.5362268,12.3214433 C3.61142268,12.1864948 3.78187629,12.138 3.91682474,12.2130515 L3.92519588,12.2178144 C4.06,12.293299 4.10820619,12.4636082 4.03301031,12.5985567 L4.03142268,12.6011546 C3.95637113,12.7361031 3.78591753,12.7845979 3.65096907,12.7095464 L3.64259794,12.7046392 C3.50764948,12.629299 3.4594433,12.4588454 3.53478351,12.3240412 L3.5362268,12.3214433" id="Fill-26" fill="#EBBE46"></path>
                        <path d="M2.35849485,11.3449072 C2.46573196,11.2337732 2.64282474,11.2304536 2.75410309,11.3376907 L2.76131959,11.3449072 C2.87173196,11.4531546 2.87375258,11.6301031 2.76579381,11.7406598 L2.76131959,11.745134 C2.65408247,11.856268 2.47698969,11.8595876 2.36571134,11.7523505 L2.35849485,11.745134 C2.20391753,11.745134 2.07863918,11.6996701 2.07863918,11.5449485 C2.07863918,11.3905155 2.20391753,11.2652371 2.35849485,11.3449072" id="Fill-27" fill="#EBBE46"></path>
                        <path d="M1.47995876,10.1476907 C1.61,10.0639794 1.78305155,10.1016495 1.86661856,10.2318351 L1.8716701,10.2399175 C1.95408247,10.3706804 1.91496907,10.5434433 1.78420619,10.6257113 L1.77929897,10.6288866 C1.64940206,10.7123093 1.47620619,10.6746392 1.39278351,10.5447423 L1.38758763,10.5365155 C1.30531959,10.4057526 1.34443299,10.2329897 1.47505155,10.1505773 L1.47995876,10.1476907" id="Fill-28" fill="#EBBE46"></path>
                        <path d="M0.886185567,8.65921649 C1.03701031,8.61375258 1.19591753,8.69804124 1.24094845,8.84742268 C1.28597938,8.99680412 1.20010309,9.15484536 1.04927835,9.20030928 C0.898309278,9.2457732 0.739546392,9.16148454 0.694515464,9.01195876 C0.649484536,8.86257732 0.735216495,8.70468041 0.886185567,8.65921649" id="Fill-29" fill="#EBBE46"></path>
                        <path d="M0.71342268,6.92191753 C0.871030928,6.92191753 0.998762887,7.04835052 0.998762887,7.20437113 C0.998762887,7.36039175 0.871030928,7.48696907 0.71342268,7.48696907 C0.555814433,7.48696907 0.428082474,7.36039175 0.428082474,7.20437113 C0.428082474,7.04835052 0.555814433,6.92191753 0.71342268,6.92191753" id="Fill-30" fill="#EBBE46"></path>
                        <path d="M6.83185567,1.13053608 C3.47762887,1.1537732 0.777072165,3.89185567 0.800309278,7.2462268 C0.823546392,10.6005979 3.56148454,13.3010103 6.916,13.2779175 C10.2582474,13.2548247 12.9537526,10.5356495 12.9476907,7.19325773 C12.9308041,3.83123711 10.1940206,1.11826804 6.83185567,1.13053608" id="Fill-31" fill="#BC8C33"></path>
                        <path d="M6.83185567,1.34053608 C3.60117526,1.36362887 1.00092784,4.00154639 1.02416495,7.2322268 C1.04725773,10.4630515 3.68517526,13.063299 6.91585567,13.0402062 C10.1302268,13.0169691 12.7238351,10.4048866 12.7238351,7.19037113 C12.7101237,3.94886598 10.0735052,1.33115464 6.83185567,1.34053608" id="Fill-32" fill="#D29A2F"></path>
                        <path d="M6.83748454,2.28329897 C6.64379381,2.28329897 6.48531959,2.12785567 6.48228866,1.9334433 C6.47925773,1.73729897 6.63571134,1.57564948 6.83185567,1.57261856 L6.83474227,1.57261856 C7.03146392,1.57261856 7.19123711,1.73123711 7.19282474,1.92795876 C7.19282474,2.12208247 7.03709278,2.28012371 6.8431134,2.28315464 C6.84123711,2.28329897 6.83936082,2.28329897 6.83748454,2.28329897" id="Fill-33" fill="#D8A62E"></path>
                        <path d="M6.8377732,12.752268 C6.6442268,12.752268 6.48560825,12.5969691 6.48243299,12.402701 C6.47925773,12.2064124 6.63571134,12.0447629 6.83185567,12.041732 C6.83301031,12.041732 6.83402062,12.041732 6.83517526,12.041732 C7.02713402,12.041732 7.18546392,12.1934227 7.19282474,12.3856701 L7.19296907,12.3911546 C7.19614433,12.587299 7.03969072,12.7489485 6.84354639,12.7521237 C6.84152577,12.752268 6.83964948,12.752268 6.8377732,12.752268" id="Fill-34" fill="#D8A62E"></path>
                        <path d="M1.97486598,5.54212371 C1.96750515,5.54212371 1.96,5.54183505 1.95249485,5.54140206 C1.7736701,5.52927835 1.63857732,5.3745567 1.65070103,5.19573196 L1.65070103,5.19443299 C1.66138144,5.02397938 1.80296907,4.89292784 1.97154639,4.89292784 C1.9783299,4.89292784 1.9851134,4.89307216 1.99189691,4.89350515 L1.99637113,4.89379381 C2.17519588,4.90591753 2.31028866,5.06063918 2.29816495,5.23946392 C2.28661856,5.41078351 2.14402062,5.54212371 1.97486598,5.54212371" id="Fill-35" fill="#D8A62E"></path>
                        <path d="M2.57946392,4.77602062 C2.4471134,4.72752577 2.30725773,4.70270103 2.16639175,4.70270103 C2.15397938,4.70270103 2.14142268,4.70284536 2.12901031,4.70327835 C2.11183505,4.70226804 2.09465979,4.70169072 2.07748454,4.70169072 C1.96562887,4.70169072 1.85478351,4.72406186 1.75129897,4.76764948 C2.0942268,4.05076289 2.58754639,3.41614433 3.1977732,2.90723711 C4.01035052,2.212 5.01156701,1.77468041 6.07383505,1.65098969 C6.07383505,1.65098969 4.9743299,1.81321649 3.63971134,3.18694845 C2.73894845,4.12134021 2.57946392,4.77602062 2.57946392,4.77602062" id="Fill-36" fill="#D8A62E"></path>
                        <path d="M1.23301031,7.68369072 C1.22030928,7.53098969 1.21395876,7.37771134 1.21424742,7.224 C1.21439175,6.59342268 1.3203299,5.96746392 1.52758763,5.37195876 C1.56006186,5.46995876 1.61909278,5.55713402 1.69818557,5.6236701 C1.77843299,5.70954639 1.8731134,5.7805567 1.97804124,5.83352577 C1.7248866,6.27243299 1.57117526,6.76127835 1.52758763,7.266 C1.52268041,7.31868041 1.51849485,7.37150515 1.51474227,7.42418557 L1.23301031,7.68369072" id="Fill-37" fill="#D8A62E"></path>
                        <path d="M5.97309278,12.7186392 C5.9123299,12.7098351 5.85156701,12.7000206 5.79123711,12.6891959 L5.81736082,12.6650928 C5.8688866,12.6838557 5.92084536,12.7017526 5.97309278,12.7186392 M3.71750515,11.8556907 C3.43505155,11.6732577 3.17107216,11.464268 2.92903093,11.2318969 L3.38251546,10.8136289 C3.53362887,11.0169897 3.74868041,11.2663918 4.05134021,11.548268 L3.71750515,11.8556907 M2.41261856,10.5609072 C2.46804124,10.485567 2.53746392,10.4214845 2.61713402,10.3724124 L2.41261856,10.5609072" id="Fill-38" fill="#D8A62E"></path>
                        <path d="M2.14026804,10.3099175 C2.0816701,10.1810309 2.02841237,10.0501237 1.98063918,9.91748454 L2.49387629,9.44494845 C2.57960825,9.6097732 2.6754433,9.76969072 2.78094845,9.92383505 C2.78094845,9.92383505 2.75294845,10.0496907 2.50109278,10.2035464 C2.39197938,10.2695052 2.26771134,10.3061649 2.14026804,10.3099175 M1.73585567,7.22053608 C1.79228866,6.86158763 1.88552577,6.50826804 2.01441237,6.16649485 C1.95653608,6.45746392 1.92637113,6.75247423 1.9237732,7.04734021 L1.73585567,7.22053608" id="Fill-39" fill="#D8A62E"></path>
                        <path d="M11.6953402,9.47439175 C11.6866804,9.47439175 11.6778763,9.47410309 11.6692165,9.47338144 C11.4909691,9.46068041 11.3565979,9.30624742 11.368433,9.128 C11.3798351,8.95668041 11.522433,8.82505155 11.6918763,8.82505155 C11.6990928,8.82505155 11.7064536,8.82534021 11.7138144,8.8257732 C11.8927835,8.83760825 12.0280206,8.9923299 12.0160412,9.17115464 L12.0156082,9.17837113 C12.0020412,9.34680412 11.8613196,9.47439175 11.6953402,9.47439175" id="Fill-40" fill="#D8A62E"></path>
                        <path d="M7.59016495,12.7186392 C7.59016495,12.7186392 8.68692784,12.5536701 10.0214021,11.1743093 C10.9221649,10.2399175 11.0816495,9.58523711 11.0816495,9.58523711 C11.214,9.63373196 11.3538557,9.6585567 11.4945773,9.6585567 C11.5069897,9.6585567 11.5195464,9.65841237 11.5319588,9.65797938 C11.5492784,9.65898969 11.5665979,9.65956701 11.5839175,9.65956701 C11.6956289,9.65956701 11.8064742,9.63719588 11.9098144,9.59375258 C11.5686186,10.3132371 11.0763093,10.9507423 10.4662268,11.4625361 C9.65350515,12.1574845 8.65228866,12.5949485 7.59016495,12.7186392" id="Fill-41" fill="#D8A62E"></path>
                        <path d="M12.1475258,9.00604124 C12.1149072,8.90804124 12.0558763,8.82086598 11.9767835,8.7543299 C11.8966804,8.66859794 11.802,8.5974433 11.6970722,8.54447423 C11.9502268,8.10571134 12.1039381,7.61672165 12.1475258,7.11214433 C12.1566186,7.01212371 12.1638351,6.91195876 12.1691753,6.81179381 L12.4304124,6.57090722 C12.4509072,6.76430928 12.4611546,6.95901031 12.460866,7.154 C12.4607216,7.78472165 12.3549278,8.41053608 12.1475258,9.00604124" id="Fill-42" fill="#D8A62E"></path>
                        <path d="M10.6737732,4.13014433 C10.6594845,4.13014433 10.6451959,4.12956701 10.6309072,4.12841237 L11.1799381,3.62210309 C11.2160206,3.66670103 11.2513814,3.71187629 11.2858763,3.75762887 C11.2177526,3.86861856 11.1210515,3.95940206 11.0061649,4.02059794 C10.9094639,4.09204124 10.7928454,4.13014433 10.6737732,4.13014433 M10.1709278,3.41296907 C10.0381443,3.24857732 9.86797938,3.06094845 9.65105155,2.85527835 L9.99051546,2.54265979 C10.2062887,2.68496907 10.4109485,2.84286598 10.6029072,3.01505155 L10.1709278,3.41296907 M7.75802062,1.67321649 C7.73564948,1.66571134 7.71327835,1.65820619 7.69076289,1.65098969 C7.71703093,1.65474227 7.74315464,1.65878351 7.76927835,1.66282474 L7.75802062,1.67321649" id="Fill-43" fill="#D8A62E"></path>
                        <path d="M11.6495876,8.21439175 C11.7156907,7.882 11.745567,7.54441237 11.7395052,7.20769072 L11.9490722,7.01457732 C11.8961031,7.42375258 11.7957938,7.82643299 11.6495876,8.21439175 M11.1890309,4.97303093 C11.0985361,4.79492784 10.9963505,4.62259794 10.8829072,4.45705155 C10.8829072,4.45705155 10.9110515,4.33119588 11.1627629,4.17734021 C11.2718763,4.11123711 11.3962887,4.07472165 11.523732,4.07096907 C11.5882474,4.21298969 11.6464124,4.35760825 11.6977938,4.50439175 L11.1890309,4.97303093" id="Fill-44" fill="#D8A62E"></path>
                        <path d="M1.03787629,10.7853402 C0.628845361,10.1335464 0.334412371,9.4162268 0.16785567,8.66484536 L0.173773196,8.65950515 C0.348268041,9.41896907 0.649195876,10.1303711 1.05346392,10.7711959 L1.03787629,10.7853402" id="Fill-45" fill="#FFFFFE"></path>
                        <path d="M1.05346392,10.7711959 C0.649195876,10.1303711 0.348268041,9.41896907 0.173773196,8.65950515 L0.241319588,8.59729897 C0.403402062,9.36614433 0.695381443,10.0860619 1.09329897,10.7343918 L1.05346392,10.7711959 M1.23676289,10.6023299 C1.12274227,10.3933402 1.18769072,10.1308041 1.38758763,9.99931959 L1.41010309,9.99931959 C1.30517526,9.79870103 1.21179381,9.59216495 1.13024742,9.38101031 L1.10513402,9.38101031 C1.05865979,9.39573196 1.01146392,9.40265979 0.965134021,9.40265979 C0.768412371,9.40265979 0.585690722,9.27637113 0.523195876,9.07878351 C0.445835052,8.83472165 0.581216495,8.57420619 0.825278351,8.49698969 L0.853278351,8.49698969 C0.824701031,8.36564948 0.800453608,8.23329897 0.780536082,8.10051546 L0.856020619,8.03094845 C0.884453608,8.24008247 0.92342268,8.44517526 0.972639175,8.64694845 C0.971484536,8.64694845 0.970474227,8.64694845 0.969319588,8.64694845 C0.941896907,8.64694845 0.913896907,8.65084536 0.886185567,8.65921649 C0.735216495,8.70468041 0.649484536,8.86257732 0.694515464,9.01195876 C0.731175258,9.13406186 0.843896907,9.21257732 0.96614433,9.21257732 C0.99356701,9.21257732 1.02156701,9.20868041 1.04927835,9.20030928 C1.07626804,9.19208247 1.10138144,9.18039175 1.12389691,9.1656701 C1.23676289,9.49661856 1.37748454,9.81501031 1.54303093,10.1173814 C1.52138144,10.1245979 1.50016495,10.134701 1.47995876,10.1476907 L1.47505155,10.1505773 C1.36045361,10.2228866 1.31628866,10.3644742 1.36261856,10.486433 L1.23676289,10.6023299 M10.3371959,2.22340206 C10.2690722,2.17591753 10.1999381,2.12973196 10.1299381,2.08498969 C10.1371546,2.07517526 10.1439381,2.06478351 10.15,2.05381443 L10.1553402,2.04457732 C10.2293814,1.90890722 10.179299,1.73903093 10.0437732,1.66498969 L10.0352577,1.66008247 C9.99224742,1.63612371 9.94562887,1.62472165 9.89958763,1.62472165 C9.80129897,1.62472165 9.70604124,1.67653608 9.65494845,1.76847423 L9.64946392,1.77771134 C9.64513402,1.78579381 9.64123711,1.79387629 9.6377732,1.80210309 C9.34261856,1.65026804 9.03346392,1.52181443 8.71276289,1.41919588 C8.71305155,1.41818557 8.71334021,1.41703093 8.71362887,1.41602062 C8.75447423,1.26548454 8.66412371,1.10989691 8.51214433,1.06861856 C8.4868866,1.06183505 8.46162887,1.05851546 8.43665979,1.05851546 C8.43276289,1.05851546 8.42886598,1.05865979 8.42496907,1.05880412 L8.57781443,0.917938144 C8.7934433,0.996309278 8.92016495,1.2208866 8.87426804,1.44676289 L8.87426804,1.46350515 C9.07315464,1.53364948 9.26843299,1.61389691 9.45894845,1.70410309 C9.45894845,1.70410309 9.45894845,1.70410309 9.45894845,1.69010309 C9.54756701,1.54894845 9.69954639,1.47129897 9.85513402,1.47129897 C9.93769072,1.47129897 10.0212577,1.49323711 10.0968866,1.53898969 C10.3149691,1.66369072 10.3923299,1.94051546 10.2702268,2.16018557 L10.2702268,2.17418557 C10.2933196,2.1897732 10.3164124,2.20564948 10.3392165,2.22152577 L10.3371959,2.22340206 M10.8804536,1.72329897 C10.2644536,1.27082474 9.56979381,0.919814433 8.82086598,0.694226804 L8.82389691,0.691340206 C9.56373196,0.915484536 10.2599794,1.26360825 10.8829072,1.72098969 L10.8804536,1.72329897" id="Fill-46" fill="#D9A935"></path>
                        <path d="M1.09329897,10.7343918 C0.695381443,10.0860619 0.403402062,9.36614433 0.241319588,8.59729897 L0.780536082,8.10051546 C0.800453608,8.23329897 0.824701031,8.36564948 0.853278351,8.49698969 L0.825278351,8.49698969 C0.581216495,8.57420619 0.445835052,8.83472165 0.523195876,9.07878351 C0.585690722,9.27637113 0.768412371,9.40265979 0.965134021,9.40265979 C1.01146392,9.40265979 1.05865979,9.39573196 1.10513402,9.38101031 L1.13024742,9.38101031 C1.21179381,9.59216495 1.30517526,9.79870103 1.41010309,9.99931959 L1.38758763,9.99931959 C1.18769072,10.1308041 1.12274227,10.3933402 1.23676289,10.6023299 L1.09329897,10.7343918 M10.3392165,2.22152577 C10.3164124,2.20564948 10.2933196,2.1897732 10.2702268,2.17418557 L10.2702268,2.16018557 C10.3923299,1.94051546 10.3149691,1.66369072 10.0968866,1.53898969 C10.0212577,1.49323711 9.93769072,1.47129897 9.85513402,1.47129897 C9.69954639,1.47129897 9.54756701,1.54894845 9.45894845,1.69010309 C9.45894845,1.70410309 9.45894845,1.70410309 9.45894845,1.70410309 C9.26843299,1.61389691 9.07315464,1.53364948 8.87426804,1.46350515 L8.87426804,1.44676289 C8.92016495,1.2208866 8.7934433,0.996309278 8.57781443,0.917938144 L8.82086598,0.694226804 C9.56979381,0.919814433 10.2644536,1.27082474 10.8804536,1.72329897 L10.3392165,2.22152577" id="Fill-47" fill="#F6E068"></path>
                        <path d="M8.71276289,1.55851546 C8.54101031,1.48228497 8.36608247,1.41645864 8.18812371,1.36143663 L8.42496907,1.05891562 C8.42886598,1.05871554 8.43276289,1.05851546 8.43665979,1.05851546 C8.46162887,1.05851546 8.4868866,1.0631173 8.51214433,1.07252107 C8.66412371,1.12974396 8.75447423,1.34543023 8.71362887,1.5541137 C8.71334021,1.55551426 8.71305155,1.5571149 8.71276289,1.55851546" id="Fill-48" fill="#EFC962"></path>
                        <path d="M10.1299381,2.12472165 C9.97074227,2.01434222 9.80663918,1.91164545 9.6377732,1.81741528 C9.64123711,1.80847831 9.64513402,1.79969813 9.64946392,1.79091795 L9.65494845,1.78088346 C9.70604124,1.68100889 9.80129897,1.62472165 9.89958763,1.62472165 C9.94562887,1.62472165 9.99224742,1.63710798 10.0352577,1.66313495 L10.0437732,1.66846577 C10.179299,1.74889851 10.2293814,1.93343912 10.1553402,2.08082074 L10.15,2.09085523 C10.1439381,2.10277119 10.1371546,2.11406 10.1299381,2.12472165" id="Fill-49" fill="#EFC962"></path>
                        <path d="M1.37759447,10.6173814 C1.29301803,10.4521487 1.3736423,10.2603224 1.58284384,10.162356 L1.59180209,10.1584452 C1.62868901,10.1408464 1.66742028,10.1271585 1.70694198,10.1173814 C1.75199672,10.1783904 1.79757842,10.2384217 1.84447751,10.298453 L1.37759447,10.6173814" id="Fill-50" fill="#EFC962"></path>
                        <path d="M1.00381894,9.21257732 C0.865332666,9.21257732 0.737637531,9.13406186 0.696107999,9.01195876 C0.645095345,8.86257732 0.742215589,8.70468041 0.91323878,8.65921649 C0.944631182,8.65084536 0.976350588,8.64694845 1.00741599,8.64694845 C1.008724,8.64694845 1.00986852,8.64694845 1.01117653,8.64694845 C1.05973666,8.8228866 1.11696239,8.99608247 1.18252673,9.1656701 C1.1570204,9.18039175 1.12857104,9.19208247 1.09799615,9.20030928 C1.06660374,9.20868041 1.03488434,9.21257732 1.00381894,9.21257732" id="Fill-51" fill="#EFC962"></path>
                        <path d="M1.61837113,10.2510309 C1.59268041,10.2067216 1.56771134,10.1624124 1.54303093,10.1173814 C1.37748454,9.81501031 1.23676289,9.49661856 1.12389691,9.1656701 C1.06602062,8.99608247 1.01550515,8.8228866 0.972639175,8.64694845 C0.92342268,8.44517526 0.884453608,8.24008247 0.856020619,8.03094845 L1.06010309,7.84303093 C1.15002062,8.65430928 1.40591753,9.41478351 1.79243299,10.0906804 L1.61837113,10.2510309 M10.1754021,2.37235052 C9.53053608,1.92853608 8.79286598,1.61043299 7.99746392,1.45268041 L8.18812371,1.27703093 C8.36608247,1.31672165 8.54101031,1.36420619 8.71276289,1.41919588 C9.03346392,1.52181443 9.34261856,1.65026804 9.6377732,1.80210309 C9.80663918,1.88884536 9.97074227,1.98338144 10.1299381,2.08498969 C10.1999381,2.12973196 10.2690722,2.17591753 10.3371959,2.22340206 L10.1754021,2.37235052" id="Fill-52" fill="#C89E32"></path>
                        <path d="M1.79243299,10.0906804 C1.40591753,9.41478351 1.15002062,8.65430928 1.06010309,7.84303093 L1.23301031,7.68369072 C1.27731959,8.218 1.39985567,8.74379381 1.5974433,9.24389691 C1.4994433,8.64247423 1.47173196,8.03181443 1.51474227,7.42418557 L1.73585567,7.22053608 C1.68043299,7.57226804 1.66008247,7.92962887 1.67581443,8.28713402 C1.68938144,8.84439175 1.79257732,9.39472165 1.98063918,9.91748454 L1.79243299,10.0906804 M2.49387629,9.44494845 C2.29758763,9.06738144 2.15383505,8.66369072 2.06752577,8.24513402 C1.96837113,7.8525567 1.92030928,7.44987629 1.9237732,7.04734021 L7.75802062,1.67321649 C8.39538144,1.89 8.98063918,2.23769072 9.47569072,2.69449485 C9.53731959,2.74919588 9.59562887,2.8028866 9.65105155,2.85527835 L2.49387629,9.44494845 M9.99051546,2.54265979 C9.9037732,2.48536082 9.81515464,2.43051546 9.72480412,2.37841237 C9.12482474,2.016 8.46076289,1.77323711 7.76927835,1.66282474 L7.99746392,1.45268041 C8.79286598,1.61043299 9.53053608,1.92853608 10.1754021,2.37235052 L9.99051546,2.54265979" id="Fill-53" fill="#D9A935"></path>
                        <path d="M1.73301031,9.24389691 C1.4619212,8.74379381 1.29380239,8.218 1.23301031,7.68369072 L1.61954496,7.42418557 C1.56053506,8.03181443 1.59855486,8.64247423 1.73301031,9.24389691" id="Fill-54" fill="#DEB33E"></path>
                        <path d="M1.98063918,9.91748454 C1.79257732,9.39472165 1.68938144,8.84439175 1.67581443,8.28713402 C1.66008247,7.92962887 1.68043299,7.57226804 1.73585567,7.22053608 L1.9237732,7.04734021 C1.92030928,7.44987629 1.96837113,7.8525567 2.06752577,8.24513402 C2.15383505,8.66369072 2.29758763,9.06738144 2.49387629,9.44494845 L1.98063918,9.91748454" id="Fill-55" fill="#DEB33E"></path>
                        <path d="M9.65105155,2.85527835 C9.59562887,2.8028866 9.53731959,2.74919588 9.47569072,2.69449485 C8.98063918,2.23769072 8.39538144,1.89 7.75802062,1.67321649 L7.76927835,1.66282474 C8.46076289,1.77323711 9.12482474,2.016 9.72480412,2.37841237 C9.81515464,2.43051546 9.9037732,2.48536082 9.99051546,2.54265979 L9.65105155,2.85527835" id="Fill-56" fill="#DEB33E"></path>
                        <path d="M2.04515464,12.0472165 C1.84583505,11.8481856 1.65892784,11.6370309 1.48558763,11.4149072 L1.50146392,11.4001856 C1.67740206,11.6201443 1.86676289,11.8292784 2.06810309,12.026 L2.04515464,12.0472165" id="Fill-57" fill="#FFFFFE"></path>
                        <path d="M2.06810309,12.026 C1.86676289,11.8292784 1.67740206,11.6201443 1.50146392,11.4001856 L1.53480412,11.3695876 C1.70857732,11.5912784 1.89606186,11.8022887 2.09552577,12.0007423 L2.06810309,12.026 M2.23004124,11.8766186 C2.22802062,11.8747423 2.22614433,11.872866 2.22412371,11.8709897 C2.15498969,11.8030103 2.11197938,11.7185773 2.09509278,11.6299588 C2.1337732,11.7169897 2.2371134,11.745134 2.35849485,11.745134 L2.36527835,11.7519175 L2.23004124,11.8766186 M2.09754639,11.4446392 C2.1154433,11.3633814 2.15571134,11.2858763 2.21835052,11.2220825 L2.22412371,11.2163093 L2.24375258,11.1966804 C2.16538144,11.1090722 2.08960825,11.0187216 2.01643299,10.9259175 L2.0497732,10.8950309 C2.15989691,11.0386392 2.27637113,11.1774845 2.39847423,11.3105567 C2.3843299,11.3205155 2.37090722,11.3320619 2.35849485,11.3449072 C2.3254433,11.3278763 2.29369072,11.3202268 2.26410309,11.3202268 C2.18789691,11.3202268 2.12684536,11.3717526 2.09754639,11.4446392 M11.4180825,3.1862268 C11.3778144,3.14076289 11.3368247,3.09587629 11.2952577,3.05171134 L11.2987216,3.04824742 C11.4066804,2.93769072 11.4048041,2.76059794 11.2942474,2.65249485 L11.2870309,2.64527835 C11.2327629,2.5928866 11.1627629,2.56690722 11.0929072,2.56690722 C11.0916082,2.56690722 11.0904536,2.56690722 11.0891546,2.56690722 L11.2417113,2.42647423 C11.3047835,2.44870103 11.3639588,2.48492784 11.4146186,2.53501031 C11.5953196,2.71268041 11.5979175,3.00321649 11.4203918,3.18391753 L11.4180825,3.1862268 M12.0528454,2.81703093 C11.8721443,2.60371134 11.6790309,2.40208247 11.4737938,2.21257732 L11.4761031,2.2105567 C11.6813402,2.39991753 11.8745979,2.60183505 12.0551546,2.81486598 L12.0528454,2.81703093" id="Fill-58" fill="#D9A935"></path>
                        <path d="M2.09552577,12.0007423 C1.89606186,11.8022887 1.70857732,11.5912784 1.53480412,11.3695876 L2.01643299,10.9259175 C2.08960825,11.0187216 2.16538144,11.1090722 2.24375258,11.1966804 L2.22412371,11.2163093 L2.21835052,11.2220825 C2.15571134,11.2858763 2.1154433,11.3633814 2.09754639,11.4446392 C2.08542268,11.4750928 2.07863918,11.509299 2.07863918,11.5449485 C2.07863918,11.5781443 2.08441237,11.6062887 2.09509278,11.6299588 C2.11197938,11.7185773 2.15498969,11.8030103 2.22412371,11.8709897 C2.22614433,11.872866 2.22802062,11.8747423 2.23004124,11.8766186 L2.09552577,12.0007423 M11.5218557,3.30674227 C11.4877938,3.26604124 11.4531546,3.22606186 11.4180825,3.1862268 L11.4203918,3.18391753 C11.5979175,3.00321649 11.5953196,2.71268041 11.4146186,2.53501031 C11.3639588,2.48492784 11.3047835,2.44870103 11.2417113,2.42647423 L11.4737938,2.21257732 C11.6790309,2.40208247 11.8721443,2.60371134 12.0528454,2.81703093 L11.5218557,3.30674227" id="Fill-59" fill="#F6E068"></path>
                        <path d="M11.3456343,3.06690722 C11.2160754,2.94231656 11.081077,2.82278694 10.9406392,2.7081695 L11.1102525,2.56690722 C11.111736,2.56690722 11.1130547,2.56690722 11.1145382,2.56690722 C11.1943174,2.56690722 11.2742615,2.59370091 11.3362388,2.64773484 L11.3444805,2.65517754 C11.4707427,2.76666905 11.4728855,2.94931269 11.3495903,3.06333472 L11.3456343,3.06690722" id="Fill-60" fill="#EFC962"></path>
                        <path d="M2.36527835,11.8105567 L2.35849485,11.8028719 C2.2371134,11.8028719 2.1337732,11.7709884 2.09509278,11.6723945 C2.08441237,11.6455796 2.07863918,11.613696 2.07863918,11.5760897 C2.07863918,11.5357039 2.08542268,11.496953 2.09754639,11.4624534 C2.12684536,11.3798831 2.18789691,11.3215116 2.26410309,11.3215116 C2.29369072,11.3215116 2.3254433,11.3301774 2.35849485,11.349471 C2.37090722,11.334919 2.3843299,11.3218386 2.39847423,11.3105567 C2.46674227,11.3945986 2.53645361,11.4765148 2.60818557,11.5567961 L2.36527835,11.8105567" id="Fill-61" fill="#EFC962"></path>
                        <path d="M2.60818557,11.5279175 C2.53645361,11.4570515 2.46674227,11.3847423 2.39847423,11.3105567 C2.27637113,11.1774845 2.15989691,11.0386392 2.0497732,10.8950309 L2.22138144,10.7369897 C2.39241237,10.9609897 2.57931959,11.1722887 2.7802268,11.3691546 L2.60818557,11.5279175 M11.3620825,3.45410309 C11.1829691,3.23948454 10.988701,3.03771134 10.781299,2.85065979 L10.9406392,2.70387629 C11.0636082,2.81501031 11.1818144,2.93090722 11.2952577,3.05171134 C11.3368247,3.09587629 11.3778144,3.14076289 11.4180825,3.1862268 C11.4531546,3.22606186 11.4877938,3.26604124 11.5218557,3.30674227 L11.3620825,3.45410309" id="Fill-62" fill="#C89E32"></path>
                        <path d="M2.7802268,11.3691546 C2.57931959,11.1722887 2.39241237,10.9609897 2.22138144,10.7369897 L2.41261856,10.5609072 C2.40035052,10.5773608 2.38894845,10.5943918 2.37812371,10.612 C2.54554639,10.8334021 2.72985567,11.0405155 2.92903093,11.2318969 L2.7802268,11.3691546 M3.38251546,10.8136289 C3.11795876,10.457567 3.04954639,10.2428041 3.04954639,10.2428041 C3.02962887,10.2406392 3.00971134,10.2396289 2.98993814,10.2396289 C2.87086598,10.2396289 2.75439175,10.2775876 2.65783505,10.3490309 C2.64397938,10.3563918 2.63041237,10.3641856 2.61713402,10.3724124 L10.1709278,3.41296907 C10.5274227,3.85418557 10.6144536,4.12696907 10.6144536,4.12696907 C10.6199381,4.12754639 10.6254227,4.12797938 10.6309072,4.12841237 L3.38251546,10.8136289 M11.1799381,3.62210309 C11.0037113,3.40430928 10.8107423,3.20138144 10.6029072,3.01505155 L10.781299,2.85065979 C10.988701,3.03771134 11.1829691,3.23948454 11.3620825,3.45410309 L11.1799381,3.62210309" id="Fill-63" fill="#D9A935"></path>
                        <path d="M2.92903093,11.2318969 C2.72985567,11.0405155 2.54554639,10.8334021 2.37812371,10.612 C2.38894845,10.5943918 2.40035052,10.5773608 2.41261856,10.5609072 L2.61713402,10.3724124 C2.63041237,10.3641856 2.64397938,10.3563918 2.65783505,10.3490309 C2.75439175,10.2775876 2.87086598,10.2396289 2.98993814,10.2396289 C3.00971134,10.2396289 3.02962887,10.2406392 3.04954639,10.2428041 C3.04954639,10.2428041 3.11795876,10.457567 3.38251546,10.8136289 L2.92903093,11.2318969" id="Fill-64" fill="#DEB33E"></path>
                        <path d="M10.6309072,4.12841237 C10.6254227,4.12797938 10.6199381,4.12754639 10.6144536,4.12696907 C10.6144536,4.12696907 10.5274227,3.85418557 10.1709278,3.41296907 L10.6029072,3.01505155 C10.8107423,3.20138144 11.0037113,3.40430928 11.1799381,3.62210309 L10.6309072,4.12841237" id="Fill-65" fill="#DEB33E"></path>
                        <path d="M4.73936082,13.6586598 C4.05105155,13.4379794 3.40228866,13.1094845 2.81731959,12.6851546 L2.83160825,12.6718763 C3.40806186,13.0923093 4.05191753,13.4257113 4.74484536,13.6536082 L4.73936082,13.6586598" id="Fill-66" fill="#FFFFFE"></path>
                        <path d="M4.74484536,13.6536082 C4.05191753,13.4257113 3.40806186,13.0923093 2.83160825,12.6718763 L2.85369072,12.6515258 C3.42754639,13.0752784 4.07039175,13.4105567 4.76202062,13.6375876 L4.74484536,13.6536082 M4.9617732,13.453567 C4.81239175,13.3541237 4.72925773,13.1729897 4.76173196,12.9872371 L4.76173196,12.922866 C4.56371134,12.852866 4.3694433,12.7724742 4.17964948,12.682268 L4.17964948,12.7046392 C4.09319588,12.8530103 3.9368866,12.9362887 3.77595876,12.9362887 C3.70148454,12.9362887 3.626,12.9183918 3.55585567,12.880866 C3.33156701,12.7629485 3.24540206,12.4855464 3.36331959,12.2612577 L3.36562887,12.2570722 L3.36562887,12.234701 L3.37962887,12.2121856 C3.37024742,12.2058351 3.36086598,12.1993402 3.35162887,12.1928454 L3.37616495,12.1703299 C3.43505155,12.2118969 3.49480412,12.2524536 3.55527835,12.292 C3.54835052,12.3012371 3.54214433,12.3110515 3.5362268,12.3214433 L3.53478351,12.3240412 C3.4594433,12.4588454 3.50764948,12.629299 3.64259794,12.7046392 L3.65096907,12.7095464 C3.69397938,12.7335052 3.74074227,12.7449072 3.78678351,12.7449072 C3.88492784,12.7449072 3.9803299,12.6930928 4.03142268,12.6011546 L4.03301031,12.5985567 C4.03647423,12.5922062 4.03979381,12.5857113 4.04282474,12.5792165 C4.33220619,12.7319175 4.63558763,12.8619588 4.95008247,12.9670309 C4.94892784,12.9704948 4.94791753,12.9741031 4.94705155,12.9777113 C4.90938144,13.1165567 4.98298969,13.2595876 5.11389691,13.3134227 L4.9617732,13.453567 M12.8580619,6.1768866 C12.8320825,6.02678351 12.8007629,5.87884536 12.7639588,5.73278351 C12.7665567,5.73206186 12.7690103,5.73134021 12.7716082,5.73061856 C12.922433,5.68515464 13.0083093,5.5271134 12.9634227,5.37773196 C12.9264742,5.25562887 12.8138969,5.1771134 12.6917938,5.1771134 C12.6642268,5.1771134 12.6362268,5.18115464 12.6085155,5.18952577 C12.6059175,5.19024742 12.6033196,5.1911134 12.6007216,5.19197938 C12.5818144,5.13872165 12.5624742,5.08604124 12.5421237,5.03350515 L12.5559794,5.03350515 C12.6025979,5.01863918 12.6496495,5.01171134 12.6961237,5.01171134 C12.8928454,5.01171134 13.0754227,5.138 13.1379175,5.33558763 C13.2152784,5.57964948 13.0798969,5.84016495 12.8358351,5.91752577 L12.8162062,5.91752577 C12.8343918,6.00138144 12.850701,6.0856701 12.865134,6.17039175 L12.8580619,6.1768866 M13.4734845,5.60981443 C13.3020206,4.90043299 13.0194227,4.23449485 12.6454639,3.63148454 L12.6510928,3.62614433 C13.0303918,4.23810309 13.3089485,4.90678351 13.4765155,5.60692784 L13.4734845,5.60981443 M12.2733814,4.41230928 L12.2616907,4.41230928 C12.2331134,4.35731959 12.2038144,4.30319588 12.1735052,4.24921649 C12.1761031,4.24762887 12.1785567,4.24604124 12.1810103,4.24445361 L12.1860619,4.24142268 C12.2895464,4.17618557 12.335732,4.05393814 12.3093196,3.94107216 L12.4588454,3.80338144 C12.5629072,4.0068866 12.5009897,4.26076289 12.306866,4.39195876 L12.3013814,4.39556701 L12.2733814,4.41230928" id="Fill-67" fill="#D9A935"></path>
                        <path d="M4.76202062,13.6375876 C4.07039175,13.4105567 3.42754639,13.0752784 2.85369072,12.6515258 L3.35162887,12.1928454 C3.36086598,12.1993402 3.37024742,12.2058351 3.37962887,12.2121856 L3.36562887,12.234701 L3.36562887,12.2570722 L3.36331959,12.2612577 C3.24540206,12.4855464 3.33156701,12.7629485 3.55585567,12.880866 C3.626,12.9183918 3.70148454,12.9362887 3.77595876,12.9362887 C3.9368866,12.9362887 4.09319588,12.8530103 4.17964948,12.7046392 L4.17964948,12.682268 C4.3694433,12.7724742 4.56371134,12.852866 4.76173196,12.922866 L4.76173196,12.9872371 C4.72925773,13.1729897 4.81239175,13.3541237 4.9617732,13.453567 L4.76202062,13.6375876 M12.865134,6.17039175 C12.850701,6.0856701 12.8343918,6.00138144 12.8162062,5.91752577 L12.8358351,5.91752577 C13.0798969,5.84016495 13.2152784,5.57964948 13.1379175,5.33558763 C13.0754227,5.138 12.8928454,5.01171134 12.6961237,5.01171134 C12.6496495,5.01171134 12.6025979,5.01863918 12.5559794,5.03350515 L12.5421237,5.03350515 C12.4601443,4.82047423 12.3661856,4.61292784 12.2616907,4.41230928 L12.2733814,4.41230928 L12.3013814,4.39556701 L12.306866,4.39195876 C12.5009897,4.26076289 12.5629072,4.0068866 12.4588454,3.80338144 L12.6454639,3.63148454 C13.0194227,4.23449485 13.3020206,4.90043299 13.4734845,5.60981443 L12.865134,6.17039175" id="Fill-68" fill="#F6E068"></path>
                        <path d="M12.2670603,4.44107216 C12.2139482,4.37596678 12.1598147,4.31109558 12.1046598,4.24692697 L12.5874354,3.94107216 C12.6497401,4.12421034 12.5407921,4.32257099 12.2966806,4.42842579 L12.2847644,4.43334383 C12.2789765,4.43591994 12.2731887,4.43849605 12.2670603,4.44107216" id="Fill-69" fill="#EFC962"></path>
                        <path d="M12.8185957,5.73278351 C12.7569514,5.54919588 12.6839414,5.36849485 12.6007216,5.19197938 C12.6041891,5.1911134 12.6076566,5.19024742 12.6111241,5.18952577 C12.6481107,5.18115464 12.6854826,5.1771134 12.7222765,5.1771134 C12.8852486,5.1771134 13.0355065,5.25562887 13.084822,5.37773196 C13.1447325,5.5271134 13.0301127,5.68515464 12.8288055,5.73061856 C12.825338,5.73134021 12.8220632,5.73206186 12.8185957,5.73278351" id="Fill-70" fill="#EFC962"></path>
                        <path d="M5.14667367,13.4670309 C4.99148243,13.3893226 4.90421944,13.1828643 4.94887756,12.9824476 C4.94990418,12.9772393 4.95110191,12.9720309 4.95247074,12.9670309 C5.11176848,13.0318226 5.27329056,13.0897393 5.4372081,13.1409893 L5.14667367,13.4670309" id="Fill-71" fill="#EFC962"></path>
                        <path d="M3.78678351,12.792 C3.74074227,12.792 3.69397938,12.7794124 3.65096907,12.7529624 L3.64259794,12.7475449 C3.50764948,12.6643709 3.4594433,12.4761938 3.53478351,12.3273728 L3.5362268,12.3245048 C3.54214433,12.3130325 3.54835052,12.3021976 3.55527835,12.292 C3.7128866,12.4057667 3.87540206,12.5114073 4.04282474,12.6090809 C4.03979381,12.6162511 4.03647423,12.6234213 4.03301031,12.6304321 L4.03142268,12.6333002 C3.9803299,12.734798 3.88492784,12.792 3.78678351,12.792" id="Fill-72" fill="#EFC962"></path>
                        <path d="M5.35896907,13.0875464 C5.22070103,13.0520412 5.08445361,13.0119175 4.95008247,12.9670309 C4.63558763,12.8619588 4.33220619,12.7319175 4.04282474,12.5792165 C3.87540206,12.4907423 3.7128866,12.3950515 3.55527835,12.292 C3.49480412,12.2524536 3.43505155,12.2118969 3.37616495,12.1703299 L3.55340206,12.0070928 C4.1536701,12.4217526 4.83519588,12.726866 5.56882474,12.8941443 L5.35896907,13.0875464 M12.6617732,6.35787629 C12.5523711,5.61068041 12.3025361,4.90923711 11.9398351,4.28140206 L12.1046598,4.12956701 C12.1280412,4.1691134 12.1509897,4.20909278 12.1735052,4.24921649 C12.2038144,4.30319588 12.2331134,4.35731959 12.2616907,4.41230928 C12.3661856,4.61292784 12.4601443,4.82047423 12.5421237,5.03350515 C12.5624742,5.08604124 12.5818144,5.13872165 12.6007216,5.19197938 C12.6630722,5.36849485 12.7177732,5.54919588 12.7639588,5.73278351 C12.8007629,5.87884536 12.8320825,6.02678351 12.8580619,6.1768866 L12.6617732,6.35787629" id="Fill-73" fill="#C89E32"></path>
                        <path d="M5.56882474,12.8941443 C4.83519588,12.726866 4.1536701,12.4217526 3.55340206,12.0070928 L3.71750515,11.8556907 C3.79024742,11.9027423 3.86414433,11.9477732 3.93919588,11.9912165 C4.50915464,12.3354433 5.13684536,12.5718557 5.79123711,12.6891959 L5.56882474,12.8941443 M5.81736082,12.6650928 C5.21391753,12.4462887 4.65997938,12.1089897 4.18816495,11.6722474 C4.14068041,11.6302474 4.09507216,11.5888247 4.05134021,11.548268 L11.1890309,4.97303093 C11.3756495,5.33991753 11.5129072,5.73090722 11.5964742,6.13575258 C11.6852371,6.48748454 11.7330103,6.84715464 11.7395052,7.20769072 L5.81736082,12.6650928 M11.9490722,7.01457732 C11.9884742,6.71004124 12.0016082,6.40204124 11.9881856,6.09375258 C11.9749072,5.55107216 11.8766186,5.0148866 11.6977938,4.50439175 L11.9398351,4.28140206 C12.3025361,4.90923711 12.5523711,5.61068041 12.6617732,6.35787629 L12.4304124,6.57090722 C12.3784536,6.07917526 12.2599588,5.59581443 12.0776701,5.13410309 C12.1680206,5.68876289 12.1986186,6.25107216 12.1691753,6.81179381 L11.9490722,7.01457732" id="Fill-74" fill="#D9A935"></path>
                        <path d="M5.79123711,12.6891959 C5.13684536,12.5718557 4.50915464,12.3354433 3.93919588,11.9912165 C3.86414433,11.9477732 3.79024742,11.9027423 3.71750515,11.8556907 L4.05134021,11.548268 C4.09507216,11.5888247 4.14068041,11.6302474 4.18816495,11.6722474 C4.65997938,12.1089897 5.21391753,12.4462887 5.81736082,12.6650928 L5.79123711,12.6891959" id="Fill-75" fill="#DEB33E"></path>
                        <path d="M12.2073755,6.81179381 C12.2491104,6.25107216 12.2057388,5.68876289 12.0776701,5.13410309 C12.336058,5.59581443 12.5040203,6.07917526 12.5776701,6.57090722 L12.2073755,6.81179381" id="Fill-76" fill="#DEB33E"></path>
                        <path d="M11.7395052,7.20769072 C11.7330103,6.84715464 11.6852371,6.48748454 11.5964742,6.13575258 C11.5129072,5.73090722 11.3756495,5.33991753 11.1890309,4.97303093 L11.6977938,4.50439175 C11.8766186,5.0148866 11.9749072,5.55107216 11.9881856,6.09375258 C12.0016082,6.40204124 11.9884742,6.71004124 11.9490722,7.01457732 L11.7395052,7.20769072" id="Fill-77" fill="#DEB33E"></path>
                        <path d="M4.93507216,8.34313402 C4.8256701,8.37806186 4.71150515,8.39595876 4.59661856,8.39624742 C4.00934021,8.43680412 3.50028866,7.99371134 3.45958763,7.40643299 C3.41903093,6.81915464 3.86212371,6.31010309 4.44940206,6.26940206 C4.48158763,6.26723711 4.51391753,6.26651546 4.54624742,6.26723711 L4.59661856,6.26723711 C4.98602062,6.26435052 5.34771134,6.46756701 5.54789691,6.80154639 L6.98296907,6.02375258 C6.54954639,5.28983505 5.80047423,4.79810309 4.95470103,4.69202062 L4.95470103,3.74362887 L3.22014433,3.74362887 L3.22014433,5.01387629 C1.94542268,5.6936701 1.46321649,7.27826804 2.14301031,8.55298969 C2.38721649,9.01094845 2.76218557,9.3857732 3.22014433,9.63012371 L3.22014433,10.8862268 L4.9714433,10.8862268 L4.9714433,9.99369072 L6.59414433,9.99369072 L6.59414433,7.25748454 L4.93507216,7.25748454 L4.93507216,8.34313402" id="Fill-78" fill="#BC8C33"></path>
                        <path d="M5.04707216,8.18090722 C4.94026804,8.21453608 4.82884536,8.23142268 4.71684536,8.23113402 C4.14760825,8.28323711 3.64389691,7.8636701 3.59193814,7.29443299 C3.53997938,6.72505155 3.95940206,6.22134021 4.52878351,6.16952577 C4.57727835,6.16505155 4.62620619,6.16404124 4.67498969,6.16649485 L4.72521649,6.16649485 C5.10350515,6.1643299 5.45451546,6.36235052 5.64849485,6.68680412 L7.04734021,5.92863918 C6.62878351,5.21839175 5.90641237,4.74051546 5.08892784,4.63342268 L5.08892784,3.70451546 L3.41037113,3.70451546 L3.41037113,4.94113402 C2.16971134,5.60259794 1.70006186,7.14461856 2.36152577,8.38542268 C2.59938144,8.83125773 2.96439175,9.19641237 3.41037113,9.43412371 L3.41037113,10.6567423 L5.11692784,10.6567423 L5.11692784,9.78946392 L6.66125773,9.78946392 L6.66125773,7.12614433 L5.04707216,7.12614433 L5.04707216,8.18090722" id="Fill-79" fill="#F4DA51"></path>
                        <path d="M8.89115464,8.34313402 C9.00041237,8.37806186 9.11457732,8.39595876 9.22946392,8.39624742 C9.8168866,8.43680412 10.3259381,7.99371134 10.3664948,7.40643299 C10.4071959,6.81915464 9.96410309,6.31010309 9.37682474,6.26940206 C9.34449485,6.26723711 9.31230928,6.26651546 9.27997938,6.26723711 L9.22946392,6.26723711 C8.84020619,6.26435052 8.47837113,6.46756701 8.2783299,6.80154639 L6.8431134,6.02375258 C7.27653608,5.28983505 8.02575258,4.79810309 8.87152577,4.69202062 L8.87152577,3.74362887 L10.6059381,3.74362887 L10.6059381,5.01387629 C11.8806598,5.6936701 12.3630103,7.27826804 11.6830722,8.55298969 C11.438866,9.01094845 11.0638969,9.3857732 10.6059381,9.63012371 L10.6059381,10.8862268 L8.85752577,10.8862268 L8.85752577,9.99369072 L7.23482474,9.99369072 L7.23482474,7.25748454 L8.89389691,7.25748454 L8.89115464,8.34313402" id="Fill-80" fill="#BC8C33"></path>
                        <path d="M8.77915464,8.18090722 C8.88595876,8.21453608 8.99723711,8.23142268 9.10923711,8.23113402 C9.67861856,8.28323711 10.1823299,7.8636701 10.2341443,7.29443299 C10.2862474,6.72505155 9.86668041,6.22134021 9.2974433,6.16952577 C9.24880412,6.16505155 9.19987629,6.16404124 9.15123711,6.16649485 L9.10086598,6.16649485 C8.72286598,6.1643299 8.37171134,6.36235052 8.17758763,6.68680412 L6.77874227,5.92863918 C7.19729897,5.21839175 7.91981443,4.74051546 8.73715464,4.63342268 L8.73715464,3.70451546 L10.4158557,3.70451546 L10.4158557,4.94113402 C11.6565155,5.60259794 12.1261649,7.14461856 11.464701,8.38542268 C11.2268454,8.83125773 10.8616907,9.19641237 10.4158557,9.43412371 L10.4158557,10.6567423 L8.7456701,10.6567423 L8.7456701,9.78946392 L7.16496907,9.78946392 L7.16496907,7.12614433 L8.77915464,7.12614433 L8.77915464,8.18090722" id="Fill-81" fill="#F4DA51"></path>
                        <path d="M2.92917526,9.68323711 C2.89006186,10.2035464 2.81443299,10.2762887 2.31360825,10.3155464 C2.81443299,10.3546598 2.89006186,10.4274021 2.92917526,10.9477113 C2.96828866,10.4274021 3.04391753,10.3546598 3.54474227,10.3155464 C3.04665979,10.2735464 2.96828866,10.2035464 2.92917526,9.68323711" id="Fill-82" fill="#FFFFFE"></path>
                        <path d="M10.611567,1.36564948 C10.5500825,2.23018557 10.4213402,2.3476701 9.59331959,2.41478351 C10.4325979,2.48189691 10.5500825,2.59938144 10.611567,3.46391753 C10.6731959,2.59938144 10.8019381,2.48189691 11.6299588,2.41478351 C10.8019381,2.34478351 10.6731959,2.2245567 10.611567,1.36564948" id="Fill-83" fill="#FFFFFE"></path>
                    </g>
                </g>
            </g>
        </g>
    </g>
</svg>