<svg width="146" height="43" viewBox="0 0 146 43" fill="none" xmlns="http://www.w3.org/2000/svg">
<g opacity="0.5">
<path d="M51 22C58 22 56.5964 21 63.5 21C70.4036 21 69.0964 22 76 22C82.9036 22 81.5964 21 88.5 21C95.4036 21 94.0964 22 101 22C107.904 22 106.596 21 113.5 21C120.404 21 119.096 22 126 22C132.904 22 131.596 21 138.5 21C145.404 21 144.096 22 151 22C157.904 22 156.596 21 163.5 21C170.404 21 169.096 22 176 22C182.904 22 181.596 21 188.5 21C195.404 21 194.096 22 201 22C207.904 22 206.596 21 213.5 21C220.404 21 219.096 22 226 22C232.904 22 231.596 21 238.5 21C245.404 21 244 21.9375 251 22" stroke="#FFC91B" stroke-width="2" stroke-linecap="round" stroke-linejoin="round"/>
<path d="M1 42C8 42 6.59644 41 13.5 41C20.4036 41 19.0964 42 26 42C32.9036 42 31.5964 41 38.5 41C45.4036 41 44.0964 42 51 42C57.9036 42 56.5964 41 63.5 41C70.4036 41 69.0964 42 76 42C82.9036 42 81.5964 41 88.5 41C95.4036 41 94.0964 42 101 42C107.904 42 106.596 41 113.5 41C120.404 41 119.096 42 126 42C132.904 42 131.596 41 138.5 41C145.404 41 144.096 42 151 42C157.904 42 156.596 41 163.5 41C170.404 41 169.096 42 176 42C182.904 42 181.596 41 188.5 41C195.404 41 194 41.9375 201 42" stroke="#00AF91" stroke-width="2" stroke-linecap="round" stroke-linejoin="round"/>
<path d="M26 2C33 2 31.5964 1 38.5 1C45.4036 1 44.0964 2 51 2C57.9036 2 56.5964 1 63.5 1C70.4036 1 69.0964 2 76 2C82.9036 2 81.5964 1 88.5 1C95.4036 1 94.0964 2 101 2C107.904 2 106.596 1 113.5 1C120.404 1 119.096 2 126 2C132.904 2 131.596 1 138.5 1C145.404 1 144.096 2 151 2C157.904 2 156.596 1 163.5 1C170.404 1 169.096 2 176 2C182.904 2 181.596 1 188.5 1C195.404 1 194.096 2 201 2C207.904 2 206.596 1 213.5 1C220.404 1 219 1.9375 226 2" stroke="#FF7A1A" stroke-width="2" stroke-linecap="round" stroke-linejoin="round"/>
</g>
</svg>
