<svg width="150" height="50" viewBox="0 0 150 50" fill="none" xmlns="http://www.w3.org/2000/svg">
<path d="M51 29C58 29 56.5964 21 63.5 21C70.4036 21 69.0964 29 76 29C82.9036 29 81.5964 21 88.5 21C95.4036 21 94.0964 29 101 29C107.904 29 106.596 21 113.5 21C120.404 21 119.096 29 126 29C132.904 29 131.596 21 138.5 21C145.404 21 144.096 29 151 29C157.904 29 156.596 21 163.5 21C170.404 21 169.096 29 176 29C182.904 29 181.596 21 188.5 21C195.404 21 194.096 29 201 29C207.904 29 206.596 21 213.5 21C220.404 21 219.096 29 226 29C232.904 29 231.596 21 238.5 21C245.404 21 244 28.5 251 29" stroke="#FFC91B" stroke-width="2" stroke-linecap="round" stroke-linejoin="round"/>
<path d="M1 49C8 49 6.59644 41 13.5 41C20.4036 41 19.0964 49 26 49C32.9036 49 31.5964 41 38.5 41C45.4036 41 44.0964 49 51 49C57.9036 49 56.5964 41 63.5 41C70.4036 41 69.0964 49 76 49C82.9036 49 81.5964 41 88.5 41C95.4036 41 94.0964 49 101 49C107.904 49 106.596 41 113.5 41C120.404 41 119.096 49 126 49C132.904 49 131.596 41 138.5 41C145.404 41 144.096 49 151 49C157.904 49 156.596 41 163.5 41C170.404 41 169.096 49 176 49C182.904 49 181.596 41 188.5 41C195.404 41 194 48.5 201 49" stroke="#00AF91" stroke-width="2" stroke-linecap="round" stroke-linejoin="round"/>
<path d="M26 9C33 9 31.5964 1 38.5 1C45.4036 1 44.0964 9 51 9C57.9036 9 56.5964 1 63.5 1C70.4036 1 69.0964 9 76 9C82.9036 9 81.5964 1 88.5 1C95.4036 1 94.0964 9 101 9C107.904 9 106.596 1 113.5 1C120.404 1 119.096 9 126 9C132.904 9 131.596 1 138.5 1C145.404 1 144.096 9 151 9C157.904 9 156.596 1 163.5 1C170.404 1 169.096 9 176 9C182.904 9 181.596 1 188.5 1C195.404 1 194.096 9 201 9C207.904 9 206.596 1 213.5 1C220.404 1 219 8.5 226 9" stroke="#FF7A1A" stroke-width="2" stroke-linecap="round" stroke-linejoin="round"/>
</svg>
