<svg width="20" height="20" viewBox="0 0 20 20" fill="none" xmlns="http://www.w3.org/2000/svg">
<path d="M3.7 14.4999H2.8C2.32261 14.4999 1.86477 14.3103 1.52721 13.9727C1.18964 13.6351 1 13.1773 1 12.6999V3.6999C1 3.22251 1.18964 2.76468 1.52721 2.42711C1.86477 2.08954 2.32261 1.8999 2.8 1.8999H17.2C17.6774 1.8999 18.1352 2.08954 18.4728 2.42711C18.8104 2.76468 19 3.22251 19 3.6999V12.6999C19 13.1773 18.8104 13.6351 18.4728 13.9727C18.1352 14.3103 17.6774 14.4999 17.2 14.4999H16.3" stroke="#FF7A1A" stroke-width="2" stroke-linecap="round" stroke-linejoin="round"/>
<path d="M10 12.7L14.5 18.1H5.5L10 12.7Z" stroke="#FF7A1A" stroke-width="2" stroke-linecap="round" stroke-linejoin="round"/>
</svg>
