<svg width="100%" height="100%" viewBox="0 0 1920 1030" fill="none" xmlns="http://www.w3.org/2000/svg">
<path opacity="0.5" d="M0 0H1920V922L0 812V0Z" fill="#EBEBF2"/>
<path d="M1175 0H1920V990L1125 1030L1175 0Z" fill="#00AF91"/>
<circle opacity="0.1" cx="1966" cy="187" r="348" fill="white"/>
<g opacity="0.5">
<mask id="mask0" mask-type="alpha" maskUnits="userSpaceOnUse" x="1361" y="187" width="161" height="225">
<rect x="1361" y="187" width="161" height="225" fill="#C4C4C4"/>
</mask>
<g mask="url(#mask0)">
<circle cx="1374" cy="203" r="3" fill="white"/>
<circle cx="1407" cy="203" r="3" fill="white"/>
<circle cx="1440" cy="203" r="3" fill="white"/>
<circle cx="1473" cy="203" r="3" fill="white"/>
<circle cx="1506" cy="203" r="3" fill="white"/>
<circle cx="1374" cy="236" r="3" fill="white"/>
<circle cx="1407" cy="236" r="3" fill="white"/>
<circle cx="1440" cy="236" r="3" fill="white"/>
<circle cx="1473" cy="236" r="3" fill="white"/>
<circle cx="1506" cy="236" r="3" fill="white"/>
<circle cx="1374" cy="269" r="3" fill="white"/>
<circle cx="1407" cy="269" r="3" fill="white"/>
<circle cx="1440" cy="269" r="3" fill="white"/>
<circle cx="1473" cy="269" r="3" fill="white"/>
<circle cx="1506" cy="269" r="3" fill="white"/>
<circle cx="1374" cy="302" r="3" fill="white"/>
<circle cx="1407" cy="302" r="3" fill="white"/>
<circle cx="1440" cy="302" r="3" fill="white"/>
<circle cx="1473" cy="302" r="3" fill="white"/>
<circle cx="1506" cy="302" r="3" fill="white"/>
<circle cx="1374" cy="335" r="3" fill="white"/>
<circle cx="1407" cy="335" r="3" fill="white"/>
<circle cx="1440" cy="335" r="3" fill="white"/>
<circle cx="1473" cy="335" r="3" fill="white"/>
<circle cx="1506" cy="335" r="3" fill="white"/>
<circle cx="1374" cy="368" r="3" fill="white"/>
<circle cx="1407" cy="368" r="3" fill="white"/>
<circle cx="1440" cy="368" r="3" fill="white"/>
<circle cx="1473" cy="368" r="3" fill="white"/>
<circle cx="1506" cy="368" r="3" fill="white"/>
<circle cx="1374" cy="401" r="3" fill="white"/>
<circle cx="1407" cy="401" r="3" fill="white"/>
<circle cx="1440" cy="401" r="3" fill="white"/>
<circle cx="1473" cy="401" r="3" fill="white"/>
<circle cx="1506" cy="401" r="3" fill="white"/>
</g>
</g>
<mask id="mask1" mask-type="alpha" maskUnits="userSpaceOnUse" x="268" y="187" width="274" height="274">
<circle cx="405" cy="324" r="136" fill="#191922" stroke="#8F8FA3" stroke-width="2"/>
</mask>
<g mask="url(#mask1)">
<line x1="136.153" y1="410.085" x2="487.585" y2="58.653" stroke="white" stroke-width="2" stroke-linecap="round" stroke-linejoin="round"/>
<line x1="150.295" y1="424.227" x2="501.727" y2="72.7951" stroke="white" stroke-width="2" stroke-linecap="round" stroke-linejoin="round"/>
<line x1="164.438" y1="438.369" x2="515.87" y2="86.9372" stroke="white" stroke-width="2" stroke-linecap="round" stroke-linejoin="round"/>
<line x1="178.579" y1="452.511" x2="530.011" y2="101.079" stroke="white" stroke-width="2" stroke-linecap="round" stroke-linejoin="round"/>
<line x1="192.722" y1="466.654" x2="544.154" y2="115.222" stroke="white" stroke-width="2" stroke-linecap="round" stroke-linejoin="round"/>
<line x1="277.574" y1="551.506" x2="629.006" y2="200.074" stroke="white" stroke-width="2" stroke-linecap="round" stroke-linejoin="round"/>
<line x1="206.863" y1="480.796" x2="558.295" y2="129.364" stroke="white" stroke-width="2" stroke-linecap="round" stroke-linejoin="round"/>
<line x1="291.717" y1="565.649" x2="643.149" y2="214.216" stroke="white" stroke-width="2" stroke-linecap="round" stroke-linejoin="round"/>
<line x1="221.006" y1="494.938" x2="572.438" y2="143.506" stroke="white" stroke-width="2" stroke-linecap="round" stroke-linejoin="round"/>
<line x1="305.858" y1="579.791" x2="657.29" y2="228.359" stroke="white" stroke-width="2" stroke-linecap="round" stroke-linejoin="round"/>
<line x1="235.148" y1="509.08" x2="586.581" y2="157.648" stroke="white" stroke-width="2" stroke-linecap="round" stroke-linejoin="round"/>
<line x1="320.001" y1="593.933" x2="671.433" y2="242.501" stroke="white" stroke-width="2" stroke-linecap="round" stroke-linejoin="round"/>
<line x1="249.29" y1="523.222" x2="600.722" y2="171.79" stroke="white" stroke-width="2" stroke-linecap="round" stroke-linejoin="round"/>
<line x1="263.433" y1="537.364" x2="614.865" y2="185.932" stroke="white" stroke-width="2" stroke-linecap="round" stroke-linejoin="round"/>
</g>
<g opacity="0.2">
<path d="M1042.7 155.158C1041.12 188.272 1052.77 220.655 1075.08 245.182C1097.38 269.71 1128.51 284.372 1161.63 285.944L1164 236C1144.13 235.057 1125.45 226.259 1112.07 211.543C1098.69 196.827 1091.7 177.397 1092.64 157.528L1042.7 155.158Z" fill="#00AF91"/>
<path d="M1285.3 316.842C1286.88 283.728 1275.23 251.345 1252.92 226.818C1230.62 202.29 1199.49 187.628 1166.37 186.056L1164 236C1183.87 236.943 1202.55 245.74 1215.93 260.457C1229.31 275.173 1236.3 294.603 1235.36 314.472L1285.3 316.842Z" fill="white"/>
</g>
<g opacity="0.5">
<path d="M1775.8 723.968C1785.29 723.968 1783.39 713.12 1792.75 713.12C1802.11 713.12 1800.34 723.968 1809.7 723.968C1819.06 723.968 1817.29 713.12 1826.65 713.12C1836.01 713.12 1834.24 723.968 1843.6 723.968C1852.96 723.968 1851.19 713.12 1860.55 713.12C1869.91 713.12 1868.14 723.968 1877.5 723.968C1886.86 723.968 1885.09 713.12 1894.45 713.12C1903.81 713.12 1902.04 723.968 1911.4 723.968C1920.76 723.968 1918.99 713.12 1928.35 713.12C1937.71 713.12 1935.94 723.968 1945.3 723.968C1954.66 723.968 1952.89 713.12 1962.25 713.12C1971.61 713.12 1969.84 723.968 1979.2 723.968C1988.56 723.968 1986.79 713.12 1996.15 713.12C2005.51 713.12 2003.74 723.968 2013.1 723.968C2022.46 723.968 2020.69 713.12 2030.05 713.12C2039.41 713.12 2037.51 723.29 2047 723.968" stroke="white" stroke-width="2.712" stroke-linecap="round" stroke-linejoin="round"/>
<path d="M1708 751.088C1717.49 751.088 1715.59 740.24 1724.95 740.24C1734.31 740.24 1732.54 751.088 1741.9 751.088C1751.26 751.088 1749.49 740.24 1758.85 740.24C1768.21 740.24 1766.44 751.088 1775.8 751.088C1785.16 751.088 1783.39 740.24 1792.75 740.24C1802.11 740.24 1800.34 751.088 1809.7 751.088C1819.06 751.088 1817.29 740.24 1826.65 740.24C1836.01 740.24 1834.24 751.088 1843.6 751.088C1852.96 751.088 1851.19 740.24 1860.55 740.24C1869.91 740.24 1868.14 751.088 1877.5 751.088C1886.86 751.088 1885.09 740.24 1894.45 740.24C1903.81 740.24 1902.04 751.088 1911.4 751.088C1920.76 751.088 1918.99 740.24 1928.35 740.24C1937.71 740.24 1935.94 751.088 1945.3 751.088C1954.66 751.088 1952.89 740.24 1962.25 740.24C1971.61 740.24 1969.71 750.41 1979.2 751.088" stroke="white" stroke-width="2.712" stroke-linecap="round" stroke-linejoin="round"/>
<path d="M1741.9 696.848C1751.39 696.848 1749.49 686 1758.85 686C1768.21 686 1766.44 696.848 1775.8 696.848C1785.16 696.848 1783.39 686 1792.75 686C1802.11 686 1800.34 696.848 1809.7 696.848C1819.06 696.848 1817.29 686 1826.65 686C1836.01 686 1834.24 696.848 1843.6 696.848C1852.96 696.848 1851.19 686 1860.55 686C1869.91 686 1868.14 696.848 1877.5 696.848C1886.86 696.848 1885.09 686 1894.45 686C1903.81 686 1902.04 696.848 1911.4 696.848C1920.76 696.848 1918.99 686 1928.35 686C1937.71 686 1935.94 696.848 1945.3 696.848C1954.66 696.848 1952.89 686 1962.25 686C1971.61 686 1969.84 696.848 1979.2 696.848C1988.56 696.848 1986.79 686 1996.15 686C2005.51 686 2003.61 696.17 2013.1 696.848" stroke="white" stroke-width="2.712" stroke-linecap="round" stroke-linejoin="round"/>
</g>
<mask id="mask2" mask-type="alpha" maskUnits="userSpaceOnUse" x="0" y="590" width="253" height="224">
<path d="M0 590L206 601.5L253 813.802H206L0 802V590Z" fill="#EBEBF2"/>
</mask>
<g mask="url(#mask2)">
<path d="M136.132 889.4C136.132 880.356 134.84 882.169 134.84 873.25C134.84 864.331 136.132 866.019 136.132 857.1C136.132 848.181 134.84 849.869 134.84 840.95C134.84 832.031 136.132 833.719 136.132 824.8C136.132 815.881 134.84 817.569 134.84 808.65C134.84 799.731 136.132 801.419 136.132 792.5C136.132 783.581 134.84 785.269 134.84 776.35C134.84 767.431 136.132 769.119 136.132 760.2C136.132 751.281 134.84 752.969 134.84 744.05C134.84 735.131 136.132 736.819 136.132 727.9C136.132 718.981 134.84 720.669 134.84 711.75C134.84 702.831 136.132 704.519 136.132 695.6C136.132 686.681 134.84 688.369 134.84 679.45C134.84 670.531 136.132 672.219 136.132 663.3C136.132 654.381 134.84 656.069 134.84 647.15C134.84 638.231 136.051 640.044 136.132 631" stroke="#FFC91B" stroke-width="2.584" stroke-linecap="round" stroke-linejoin="round"/>
<path d="M161.972 954C161.972 944.956 160.68 946.769 160.68 937.85C160.68 928.931 161.972 930.619 161.972 921.7C161.972 912.781 160.68 914.469 160.68 905.55C160.68 896.631 161.972 898.319 161.972 889.4C161.972 880.481 160.68 882.169 160.68 873.25C160.68 864.331 161.972 866.019 161.972 857.1C161.972 848.181 160.68 849.869 160.68 840.95C160.68 832.031 161.972 833.719 161.972 824.8C161.972 815.881 160.68 817.569 160.68 808.65C160.68 799.731 161.972 801.419 161.972 792.5C161.972 783.581 160.68 785.269 160.68 776.35C160.68 767.431 161.972 769.119 161.972 760.2C161.972 751.281 160.68 752.969 160.68 744.05C160.68 735.131 161.972 736.819 161.972 727.9C161.972 718.981 160.68 720.669 160.68 711.75C160.68 702.831 161.891 704.644 161.972 695.6" stroke="#00AF91" stroke-width="2.584" stroke-linecap="round" stroke-linejoin="round"/>
<path d="M110.292 921.7C110.292 912.656 109 914.469 109 905.55C109 896.631 110.292 898.319 110.292 889.4C110.292 880.481 109 882.169 109 873.25C109 864.331 110.292 866.019 110.292 857.1C110.292 848.181 109 849.869 109 840.95C109 832.031 110.292 833.719 110.292 824.8C110.292 815.881 109 817.569 109 808.65C109 799.731 110.292 801.419 110.292 792.5C110.292 783.581 109 785.269 109 776.35C109 767.431 110.292 769.119 110.292 760.2C110.292 751.281 109 752.969 109 744.05C109 735.131 110.292 736.819 110.292 727.9C110.292 718.981 109 720.669 109 711.75C109 702.831 110.292 704.519 110.292 695.6C110.292 686.681 109 688.369 109 679.45C109 670.531 110.211 672.344 110.292 663.3" stroke="#FF7A1A" stroke-width="2.584" stroke-linecap="round" stroke-linejoin="round"/>
</g>
</svg>
