<svg width="30" height="30" viewBox="0 0 30 30" fill="current" xmlns="http://www.w3.org/2000/svg">
<path fill-rule="evenodd" clip-rule="evenodd" d="M2.87778 8.51099L2.77634 8.50038C2.40716 8.48688 2.07562 8.74796 2.01087 9.12209L2.00026 9.22354C1.98676 9.59272 2.24784 9.92426 2.62197 9.98901L4.13098 10.25L5.04551 21.1457L5.06443 21.3095C5.24843 22.5519 6.31708 23.486 7.58988 23.486H18.5019L18.6662 23.4808C19.8626 23.4044 20.8545 22.4996 21.0291 21.2978L21.9781 14.7394L21.9945 14.5888C22.0819 13.3897 21.132 12.349 19.9089 12.349H5.81198L5.57725 9.54727L5.55956 9.43641C5.49112 9.14809 5.25673 8.92273 4.95778 8.87099L2.87778 8.51099ZM7.47394 21.9797C6.97867 21.9255 6.58258 21.5277 6.54028 21.0207L5.93798 13.849H19.9089L19.997 13.8555C20.3128 13.9024 20.5409 14.1977 20.4936 14.5247L19.5446 21.0826L19.5208 21.1998C19.4005 21.6584 18.985 21.986 18.5019 21.986H7.58988L7.47394 21.9797ZM5.90828 26.5853C5.90828 25.7492 6.58595 25.0703 7.42228 25.0703C8.25849 25.0703 8.93728 25.7491 8.93728 26.5853C8.93728 27.4216 8.25838 28.0993 7.42228 28.0993C6.58606 28.0993 5.90828 27.4215 5.90828 26.5853ZM17.1597 26.5853C17.1597 25.7491 17.8385 25.0703 18.6747 25.0703C19.5109 25.0703 20.1897 25.7491 20.1897 26.5853C20.1897 27.4216 19.5108 28.0993 18.6747 28.0993C17.8386 28.0993 17.1597 27.4216 17.1597 26.5853ZM17.6484 16.795C17.6484 16.3808 17.3126 16.045 16.8984 16.045H14.1254L14.0236 16.0518C13.6575 16.1015 13.3754 16.4153 13.3754 16.795C13.3754 17.2092 13.7112 17.545 14.1254 17.545H16.8984L17.0001 17.5382C17.3662 17.4885 17.6484 17.1747 17.6484 16.795Z" fill="current"/>
</svg>
