<svg width="17" height="20" viewBox="0 0 17 20" fill="none" xmlns="http://www.w3.org/2000/svg">
<path d="M11.8 2.80005H13.6C14.0774 2.80005 14.5352 2.98969 14.8728 3.32726C15.2104 3.66482 15.4 4.12266 15.4 4.60005V17.2C15.4 17.6774 15.2104 18.1353 14.8728 18.4728C14.5352 18.8104 14.0774 19 13.6 19H2.8C2.32261 19 1.86477 18.8104 1.52721 18.4728C1.18964 18.1353 1 17.6774 1 17.2V4.60005C1 4.12266 1.18964 3.66482 1.52721 3.32726C1.86477 2.98969 2.32261 2.80005 2.8 2.80005H4.6" stroke="#FF7A1A" stroke-width="2" stroke-linecap="round" stroke-linejoin="round"/>
<path d="M10.9001 1H5.5001C5.00304 1 4.6001 1.40294 4.6001 1.9V3.7C4.6001 4.19706 5.00304 4.6 5.5001 4.6H10.9001C11.3972 4.6 11.8001 4.19706 11.8001 3.7V1.9C11.8001 1.40294 11.3972 1 10.9001 1Z" stroke="#FF7A1A" stroke-width="2" stroke-linecap="round" stroke-linejoin="round"/>
</svg>
