<svg width="22" height="21" viewBox="0 0 22 21" fill="none" xmlns="http://www.w3.org/2000/svg">
<path d="M11 20.5C8.32891 20.5 5.81766 19.4598 3.92891 17.5711C2.04016 15.6823 1 13.1711 1 10.5C1 7.82891 2.0402 5.3177 3.92891 3.42891C5.81762 1.54012 8.32891 0.5 11 0.5C13.6711 0.5 16.1823 1.54016 18.0711 3.42891C19.9598 5.31766 21 7.82891 21 10.5C21 13.1711 19.9598 15.6823 18.0711 17.5711C16.1824 19.4599 13.6711 20.5 11 20.5ZM11 1.75C6.17523 1.75 2.25 5.67523 2.25 10.5C2.25 15.3248 6.17523 19.25 11 19.25C15.8248 19.25 19.75 15.3248 19.75 10.5C19.75 5.67523 15.8248 1.75 11 1.75Z" fill="#FF7A1A" stroke="#FF7A1A" stroke-width="0.4"/>
<path d="M11 9.875C10.1384 9.875 9.4375 9.17406 9.4375 8.3125C9.4375 7.45094 10.1384 6.75 11 6.75C11.8616 6.75 12.5625 7.45094 12.5625 8.3125C12.5625 8.65766 12.8423 8.9375 13.1875 8.9375C13.5327 8.9375 13.8125 8.65766 13.8125 8.3125C13.8125 6.97652 12.8759 5.85594 11.625 5.57086V4.875C11.625 4.52984 11.3452 4.25 11 4.25C10.6548 4.25 10.375 4.52984 10.375 4.875V5.57086C9.12414 5.85594 8.1875 6.97652 8.1875 8.3125C8.1875 9.86332 9.44918 11.125 11 11.125C11.8616 11.125 12.5625 11.8259 12.5625 12.6875C12.5625 13.5491 11.8616 14.25 11 14.25C10.1384 14.25 9.4375 13.5491 9.4375 12.6875C9.4375 12.3423 9.1577 12.0625 8.8125 12.0625C8.4673 12.0625 8.1875 12.3423 8.1875 12.6875C8.1875 14.0235 9.12414 15.1441 10.375 15.4291V16.125C10.375 16.4702 10.6548 16.75 11 16.75C11.3452 16.75 11.625 16.4702 11.625 16.125V15.4291C12.8759 15.1441 13.8125 14.0235 13.8125 12.6875C13.8125 11.1367 12.5508 9.875 11 9.875Z" fill="#FF7A1A" stroke="#FF7A1A" stroke-width="0.4"/>
</svg>
