<svg width="275" height="232" viewBox="0 0 275 232" fill="none" xmlns="http://www.w3.org/2000/svg">
<mask id="mask0" mask-type="alpha" maskUnits="userSpaceOnUse" x="-54" y="0" width="329" height="232">
<rect x="-54" width="329" height="232" fill="#C4C4C4"/>
</mask>
<g mask="url(#mask0)">
<circle cx="25" cy="16" r="3" fill="#EBEBF2"/>
<circle cx="58" cy="16" r="3" fill="#EBEBF2"/>
<circle cx="91" cy="16" r="3" fill="#EBEBF2"/>
<circle cx="124" cy="16" r="3" fill="#EBEBF2"/>
<circle cx="157" cy="16" r="3" fill="#EBEBF2"/>
<circle cx="190" cy="16" r="3" fill="#EBEBF2"/>
<circle cx="223" cy="16" r="3" fill="#EBEBF2"/>
<circle cx="256" cy="16" r="3" fill="#EBEBF2"/>
<circle cx="25" cy="49" r="3" fill="#EBEBF2"/>
<circle cx="58" cy="49" r="3" fill="#EBEBF2"/>
<circle cx="91" cy="49" r="3" fill="#EBEBF2"/>
<circle cx="124" cy="49" r="3" fill="#EBEBF2"/>
<circle cx="157" cy="49" r="3" fill="#EBEBF2"/>
<circle cx="190" cy="49" r="3" fill="#EBEBF2"/>
<circle cx="223" cy="49" r="3" fill="#EBEBF2"/>
<circle cx="256" cy="49" r="3" fill="#EBEBF2"/>
<circle cx="25" cy="82" r="3" fill="#EBEBF2"/>
<circle cx="58" cy="82" r="3" fill="#EBEBF2"/>
<circle cx="91" cy="82" r="3" fill="#EBEBF2"/>
<circle cx="124" cy="82" r="3" fill="#EBEBF2"/>
<circle cx="157" cy="82" r="3" fill="#EBEBF2"/>
<circle cx="190" cy="82" r="3" fill="#EBEBF2"/>
<circle cx="223" cy="82" r="3" fill="#EBEBF2"/>
<circle cx="256" cy="82" r="3" fill="#EBEBF2"/>
<circle cx="25" cy="115" r="3" fill="#EBEBF2"/>
<circle cx="58" cy="115" r="3" fill="#EBEBF2"/>
<circle cx="91" cy="115" r="3" fill="#EBEBF2"/>
<circle cx="124" cy="115" r="3" fill="#EBEBF2"/>
<circle cx="157" cy="115" r="3" fill="#EBEBF2"/>
<circle cx="190" cy="115" r="3" fill="#EBEBF2"/>
<circle cx="223" cy="115" r="3" fill="#EBEBF2"/>
<circle cx="256" cy="115" r="3" fill="#EBEBF2"/>
<circle cx="25" cy="148" r="3" fill="#EBEBF2"/>
<circle cx="58" cy="148" r="3" fill="#EBEBF2"/>
<circle cx="91" cy="148" r="3" fill="#EBEBF2"/>
<circle cx="124" cy="148" r="3" fill="#EBEBF2"/>
<circle cx="157" cy="148" r="3" fill="#EBEBF2"/>
<circle cx="190" cy="148" r="3" fill="#EBEBF2"/>
<circle cx="223" cy="148" r="3" fill="#EBEBF2"/>
<circle cx="256" cy="148" r="3" fill="#EBEBF2"/>
<circle cx="25" cy="181" r="3" fill="#EBEBF2"/>
<circle cx="58" cy="181" r="3" fill="#EBEBF2"/>
<circle cx="91" cy="181" r="3" fill="#EBEBF2"/>
<circle cx="124" cy="181" r="3" fill="#EBEBF2"/>
<circle cx="157" cy="181" r="3" fill="#EBEBF2"/>
<circle cx="190" cy="181" r="3" fill="#EBEBF2"/>
<circle cx="223" cy="181" r="3" fill="#EBEBF2"/>
<circle cx="256" cy="181" r="3" fill="#EBEBF2"/>
<circle cx="25" cy="214" r="3" fill="#EBEBF2"/>
<circle cx="58" cy="214" r="3" fill="#EBEBF2"/>
<circle cx="91" cy="214" r="3" fill="#EBEBF2"/>
<circle cx="124" cy="214" r="3" fill="#EBEBF2"/>
<circle cx="157" cy="214" r="3" fill="#EBEBF2"/>
<circle cx="190" cy="214" r="3" fill="#EBEBF2"/>
<circle cx="223" cy="214" r="3" fill="#EBEBF2"/>
<circle cx="256" cy="214" r="3" fill="#EBEBF2"/>
</g>
</svg>
