<svg width="165" height="294" viewBox="0 0 165 294" fill="none" xmlns="http://www.w3.org/2000/svg">
<g opacity="0.23">
<mask id="mask0" mask-type="alpha" maskUnits="userSpaceOnUse" x="0" y="0" width="165" height="294">
<rect y="0.183594" width="165" height="293.638" fill="#C4C4C4"/>
</mask>
<g mask="url(#mask0)">
<circle cx="13" cy="10.5859" r="3" fill="#1089FF"/>
<circle cx="46" cy="10.5859" r="3" fill="#1089FF"/>
<circle cx="79" cy="10.5859" r="3" fill="#1089FF"/>
<circle cx="112" cy="10.5859" r="3" fill="#1089FF"/>
<circle cx="145" cy="10.5859" r="3" fill="#1089FF"/>
<circle cx="13" cy="43.5859" r="3" fill="#1089FF"/>
<circle cx="46" cy="43.5859" r="3" fill="#1089FF"/>
<circle cx="79" cy="43.5859" r="3" fill="#1089FF"/>
<circle cx="112" cy="43.5859" r="3" fill="#1089FF"/>
<circle cx="145" cy="43.5859" r="3" fill="#1089FF"/>
<circle cx="13" cy="76.5859" r="3" fill="#1089FF"/>
<circle cx="46" cy="76.5859" r="3" fill="#1089FF"/>
<circle cx="79" cy="76.5859" r="3" fill="#1089FF"/>
<circle cx="112" cy="76.5859" r="3" fill="#1089FF"/>
<circle cx="145" cy="76.5859" r="3" fill="#1089FF"/>
<circle cx="13" cy="109.586" r="3" fill="#1089FF"/>
<circle cx="46" cy="109.586" r="3" fill="#1089FF"/>
<circle cx="79" cy="109.586" r="3" fill="#1089FF"/>
<circle cx="112" cy="109.586" r="3" fill="#1089FF"/>
<circle cx="145" cy="109.586" r="3" fill="#1089FF"/>
<circle cx="13" cy="142.586" r="3" fill="#1089FF"/>
<circle cx="46" cy="142.586" r="3" fill="#1089FF"/>
<circle cx="79" cy="142.586" r="3" fill="#1089FF"/>
<circle cx="112" cy="142.586" r="3" fill="#1089FF"/>
<circle cx="145" cy="142.586" r="3" fill="#1089FF"/>
<circle cx="13" cy="175.586" r="3" fill="#1089FF"/>
<circle cx="46" cy="175.586" r="3" fill="#1089FF"/>
<circle cx="79" cy="175.586" r="3" fill="#1089FF"/>
<circle cx="112" cy="175.586" r="3" fill="#1089FF"/>
<circle cx="145" cy="175.586" r="3" fill="#1089FF"/>
<circle cx="13" cy="208.586" r="3" fill="#1089FF"/>
<circle cx="46" cy="208.586" r="3" fill="#1089FF"/>
<circle cx="79" cy="208.586" r="3" fill="#1089FF"/>
<circle cx="112" cy="208.586" r="3" fill="#1089FF"/>
<circle cx="145" cy="208.586" r="3" fill="#1089FF"/>
<circle cx="13" cy="241.586" r="3" fill="#1089FF"/>
<circle cx="46" cy="241.586" r="3" fill="#1089FF"/>
<circle cx="79" cy="241.586" r="3" fill="#1089FF"/>
<circle cx="112" cy="241.586" r="3" fill="#1089FF"/>
<circle cx="145" cy="241.586" r="3" fill="#1089FF"/>
<circle cx="13" cy="274.586" r="3" fill="#1089FF"/>
<circle cx="46" cy="274.586" r="3" fill="#1089FF"/>
<circle cx="79" cy="274.586" r="3" fill="#1089FF"/>
<circle cx="112" cy="274.586" r="3" fill="#1089FF"/>
<circle cx="145" cy="274.586" r="3" fill="#1089FF"/>
</g>
</g>
</svg>
