<svg width="72" height="72" viewBox="0 0 72 72" fill="none" xmlns="http://www.w3.org/2000/svg">
<rect width="72" height="72" rx="5" fill="#1089FF"/>
<path d="M42.3855 34.224C44.8743 34.224 46.8915 32.2067 46.8915 29.7179C46.8915 27.2305 44.8743 25.2119 42.3855 25.2119" stroke="white" stroke-width="2.5" stroke-linecap="round" stroke-linejoin="round"/>
<path d="M44.4575 39.1211C45.201 39.1717 45.939 39.2783 46.6675 39.4395C47.6775 39.6404 48.8938 40.0546 49.3257 40.9607C49.6018 41.5415 49.6018 42.218 49.3257 42.7989C48.8952 43.705 47.6775 44.1191 46.6675 44.3269" stroke="white" stroke-width="2.5" stroke-linecap="round" stroke-linejoin="round"/>
<path fill-rule="evenodd" clip-rule="evenodd" d="M33.5994 40.0913C38.6425 40.0913 42.9504 40.8553 42.9504 43.9071C42.9504 46.9604 38.6699 47.7503 33.5994 47.7503C28.5562 47.7503 24.2498 46.9877 24.2498 43.9345C24.2498 40.8813 28.5289 40.0913 33.5994 40.0913Z" stroke="white" stroke-width="2.5" stroke-linecap="round" stroke-linejoin="round"/>
<path fill-rule="evenodd" clip-rule="evenodd" d="M33.5993 35.7349C30.2727 35.7349 27.6077 33.0684 27.6077 29.7419C27.6077 26.4167 30.2727 23.7502 33.5993 23.7502C36.9259 23.7502 39.5923 26.4167 39.5923 29.7419C39.5923 33.0684 36.9259 35.7349 33.5993 35.7349Z" stroke="white" stroke-width="2.5" stroke-linecap="round" stroke-linejoin="round"/>
</svg>
