
<svg xmlns="http://www.w3.org/2000/svg" viewBox="0 0 232.89 56.03"><defs><style>.cls-1{fill:#0061ad;}.cls-2{fill:#003c77;}</style></defs><g id="Layer_2" data-name="Layer 2"><g id="Layer_1-2" data-name="Layer 1"><path class="cls-1" d="M0,43.8V20.36A1.74,1.74,0,0,1,.51,19.1a1.66,1.66,0,0,1,1.24-.53H16.11q11.37,0,11.38,10.5T16.11,39.56h-9V43.8a1.71,1.71,0,0,1-.52,1.25,1.69,1.69,0,0,1-1.25.52H1.79a1.71,1.71,0,0,1-1.26-.52A1.69,1.69,0,0,1,0,43.8Zm7.1-9.56H14a8.84,8.84,0,0,0,4.8-1.07c1.09-.71,1.64-2.07,1.64-4.1s-.55-3.4-1.64-4.11A8.94,8.94,0,0,0,14,23.9H7.1Z"/><path class="cls-1" d="M30.57,44.42V26.1a1.13,1.13,0,0,1,1.15-1.16h4.22a1.11,1.11,0,0,1,.83.32,1.15,1.15,0,0,1,.32.83v1.16a16.12,16.12,0,0,1,3.7-2,13.57,13.57,0,0,1,4.65-.66,1.14,1.14,0,0,1,.84.33,1.06,1.06,0,0,1,.33.8v2.82a1.08,1.08,0,0,1-.33.82,1.16,1.16,0,0,1-.84.31h-.6c-.29,0-.76,0-1.41-.05s-1.15-.06-1.49-.06q-2.53,0-4.85,2.8V44.42a1.12,1.12,0,0,1-.33.83,1.16,1.16,0,0,1-.82.32H31.72a1.15,1.15,0,0,1-.83-.32A1.13,1.13,0,0,1,30.57,44.42Z"/><path class="cls-1" d="M49.86,44.21a5.61,5.61,0,0,1-2.5-4.89,5.53,5.53,0,0,1,2.5-4.86,11.19,11.19,0,0,1,6.43-1.69h6.23a4.1,4.1,0,0,0-.93-3.07,4.14,4.14,0,0,0-2.92-.87A4.56,4.56,0,0,0,55,30.11a2.63,2.63,0,0,1-2.16,1H50A1.13,1.13,0,0,1,48.87,30q0-5.4,10.25-5.4a11.82,11.82,0,0,1,7.2,2q2.72,2,2.71,6.2V44.42a1.09,1.09,0,0,1-.32.83,1.13,1.13,0,0,1-.83.32H64.25a1.12,1.12,0,0,1-.83-.33,1.14,1.14,0,0,1-.32-.82v-.58A11.31,11.31,0,0,1,56.29,46,11,11,0,0,1,49.86,44.21Zm4-4.89A2.09,2.09,0,0,0,54.67,41a3.43,3.43,0,0,0,2.25.66A10.39,10.39,0,0,0,62.52,40V37H56.73a3.15,3.15,0,0,0-2.09.64A2,2,0,0,0,53.88,39.32Z"/><path class="cls-1" d="M72.5,35.26c0-3.52,1-6.19,2.91-8s4.7-2.71,8.27-2.71q5,0,7.85,1.66a5.33,5.33,0,0,1,2.8,4.89,1.12,1.12,0,0,1-.33.83,1.2,1.2,0,0,1-.85.32H90.31a2.61,2.61,0,0,1-2.2-1.37c-.75-1.18-2.12-1.77-4.1-1.77a4.65,4.65,0,0,0-3.86,1.43Q79,32,79,35.26t1.17,4.68c.79,1,2.12,1.45,4,1.45s3.35-.59,4.1-1.76a2.6,2.6,0,0,1,2.2-1.38h2.84a1.15,1.15,0,0,1,.85.32,1.1,1.1,0,0,1,.33.81,5.35,5.35,0,0,1-2.79,4.9A15.41,15.41,0,0,1,83.89,46q-5.52,0-8.46-2.72C73.48,41.42,72.5,38.77,72.5,35.26Z"/><path class="cls-1" d="M97.59,37.47V19.74a1.14,1.14,0,0,1,.33-.84,1.11,1.11,0,0,1,.82-.33H103a1.09,1.09,0,0,1,.82.33,1.13,1.13,0,0,1,.32.84V26h5.26a1.1,1.1,0,0,1,1.14,1.15v2.25a1.11,1.11,0,0,1-1.14,1.16H104.1v7a4.52,4.52,0,0,0,.91,3,3,3,0,0,0,2.41,1.06,10,10,0,0,0,1.35-.12,11.86,11.86,0,0,1,1.23-.11h.69a1.16,1.16,0,0,1,.84.31,1.07,1.07,0,0,1,.33.81v2a1,1,0,0,1-.33.74,1.55,1.55,0,0,1-.84.38,28,28,0,0,1-5,.37Q97.59,46,97.59,37.47Z"/><path class="cls-2" d="M114.93,21.07v-.66a2.26,2.26,0,0,1,.57-1.62,2.15,2.15,0,0,1,1.59-.59h2.34a2.14,2.14,0,0,1,1.58.58,2.23,2.23,0,0,1,.58,1.63v.66a2.21,2.21,0,0,1-.57,1.61,2.09,2.09,0,0,1-1.59.6h-2.34a2.11,2.11,0,0,1-1.58-.6A2.18,2.18,0,0,1,114.93,21.07Z"/><path class="cls-2" d="M179.76,21.07v-.66a2.22,2.22,0,0,1,.58-1.62,2.12,2.12,0,0,1,1.59-.59h2.33a2.12,2.12,0,0,1,1.58.58,2.23,2.23,0,0,1,.59,1.63v.66a2.18,2.18,0,0,1-.58,1.61,2.09,2.09,0,0,1-1.59.6h-2.33a2.1,2.1,0,0,1-1.58-.6A2.18,2.18,0,0,1,179.76,21.07Zm.08,23.36V26.65a1.08,1.08,0,0,1,.33-.82,1.14,1.14,0,0,1,.82-.32h4.21a1.1,1.1,0,0,1,.83.33,1.13,1.13,0,0,1,.32.81V44.43a1.09,1.09,0,0,1-.33.82,1.14,1.14,0,0,1-.82.32H181a1.13,1.13,0,0,1-.83-.32A1.08,1.08,0,0,1,179.84,44.43Z"/><path class="cls-2" d="M191.06,44.42V19.74a1.14,1.14,0,0,1,.33-.84,1.11,1.11,0,0,1,.82-.33h4.21a1.1,1.1,0,0,1,.83.33,1.13,1.13,0,0,1,.32.84V44.42a1.1,1.1,0,0,1-.33.83,1.14,1.14,0,0,1-.82.32h-4.21a1.13,1.13,0,0,1-.83-.32A1.09,1.09,0,0,1,191.06,44.42Z"/><path class="cls-2" d="M202.18,44.42V19.74a1.14,1.14,0,0,1,.33-.84,1.12,1.12,0,0,1,.82-.33h4.22a1.12,1.12,0,0,1,.83.33,1.17,1.17,0,0,1,.32.84V44.42a1.1,1.1,0,0,1-.33.83,1.16,1.16,0,0,1-.82.32h-4.22a1.15,1.15,0,0,1-.83-.32A1.13,1.13,0,0,1,202.18,44.42Z"/><path class="cls-2" d="M212.14,30.64q0-6.1,9.81-6.08,10.32,0,10.32,5.4a1.13,1.13,0,0,1-.32.83,1.15,1.15,0,0,1-.83.32h-2.81a2.64,2.64,0,0,1-2.17-1c-.69-.85-1.94-1.28-3.75-1.28-2.5,0-3.75.61-3.73,1.81,0,.57.48,1,1.46,1.41a21.42,21.42,0,0,0,3.56,1,39.22,39.22,0,0,1,4.2,1.08,8.7,8.7,0,0,1,3.55,2.1,4.93,4.93,0,0,1,1.46,3.65q0,6.09-10.37,6.08t-10.34-5.39a1.13,1.13,0,0,1,1.16-1.17h2.8a2.62,2.62,0,0,1,2.16,1q1,1.28,3.75,1.26,4.32,0,4.32-1.8c0-.57-.48-1-1.46-1.42a23.62,23.62,0,0,0-3.57-1c-1.41-.3-2.81-.66-4.19-1.1a8.53,8.53,0,0,1-3.54-2.09A4.89,4.89,0,0,1,212.14,30.64Z"/><path class="cls-2" d="M154.34,6.59a2.56,2.56,0,0,1,.41.09.66.66,0,0,1,.19.09s0,0,0,0h0l0,0,.08.09a1.6,1.6,0,0,1,.35.75,2.33,2.33,0,0,1,.05.27V8a27,27,0,0,1-.09,3.4,1,1,0,0,1,.9.94l4.3-.82s0-.47-3.62-3c-.31-.22-.66-.45-1-.69h0a2.65,2.65,0,0,0-.12-.3,2.28,2.28,0,0,0-.21-.41,1.9,1.9,0,0,0-.36-.39l-.11-.08,0,0,0,0-.07,0a.76.76,0,0,0-.25-.06,3.47,3.47,0,0,0-.44,0,3.14,3.14,0,0,0-.41,0Z"/><path class="cls-2" d="M154.85,11.5l.11,0a30.83,30.83,0,0,0,0-3.83,1.3,1.3,0,0,0-.31-.57C150.26,4.43,143.38,0,143.38,0s-4.25,1.51-11.16,3.52C126,5.32,116,8.5,116,8.5,120,10.2,127,14,127,14a22.84,22.84,0,0,1,0-3.3c.16-1,1.81-2.37,4-3a27.86,27.86,0,0,1,13.41-1,10.46,10.46,0,0,1,6.29,4.09l-.28,2.55,3.34-.59A1.32,1.32,0,0,1,154.85,11.5ZM143.32,2.12V1.65l10.46,5.57Z"/><path class="cls-2" d="M155.3,12.3s0,.21,0,.57,0,.65,0,1.08h.07c.07,0,.56.17.54.25a1.7,1.7,0,0,0,0-.27c.06-.83-.15-2.5-1.16-2-.8.44-.72,1.52-.61,2.28a.81.81,0,0,1,.65-.27l.33,0c0-.44,0-.81,0-1.09S155.3,12.3,155.3,12.3Z"/><path class="cls-2" d="M155.44,15.8a1.47,1.47,0,0,1,.53.25l0-1.43a1.65,1.65,0,0,0-.53-.27v0C155.41,14.81,155.43,15.29,155.44,15.8Z"/><path class="cls-2" d="M155.21,14.3a1,1,0,0,0-1,.36L154.16,16a3,3,0,0,1,1-.22c0-.49,0-1,0-1.37Z"/><path class="cls-2" d="M155.9,18.2a4.79,4.79,0,0,0,0-1.6,1.13,1.13,0,0,0-.48-.41v.31c0,.39,0,.79,0,1.2s0,.83,0,1.24v1.24c0,.41,0,.81,0,1.2,0,.78,0,1.5-.05,2.13s0,1.14,0,1.5,0,.57,0,.57,0-.21,0-.57,0-.88-.06-1.5-.05-1.35-.06-2.13c0-.39,0-.79,0-1.2V16.11a1.44,1.44,0,0,0-1,.36c-.15.11,0,1.42,0,1.59,0,1.3,0,2.6,0,3.9s0,2.41-.07,3.61a3.18,3.18,0,0,0,.11,1.44c.09.2.22.39.33.59a6.87,6.87,0,0,1,.64,3.08c.93-2.82.64-5.93.7-8.87Z"/><path class="cls-2" d="M148.85,9.81c-.15,1.78-.69,8-.7,8.3s-.17-7.11-.21-9a12.24,12.24,0,0,0-5.4-2A28,28,0,0,0,132,8a7.49,7.49,0,0,0-4.23,2.26,4.63,4.63,0,0,0-.32,1.87l.37,7.22s1-1,4.92-1.06c4.06-.11,8.36,2.46,8.36,2.46s.05-.32,2.46-1.21a8.48,8.48,0,0,1,5.6-.18l.85-8.47A9.53,9.53,0,0,0,148.85,9.81Zm-19.39.27a4.08,4.08,0,0,0-1.17,3.47,11.34,11.34,0,0,1,.08-2.85A4.65,4.65,0,0,1,130.85,9a11.12,11.12,0,0,1,2.09-.48S130.19,9.21,129.46,10.08Z"/><path class="cls-2" d="M150.69,33.22a12.22,12.22,0,0,0-5.11-2.65l-6-1.56-5.07-1.34c-1.44-.38-2.16-1-2.16-1.75,0-1.45,1.1-2.17,3.31-2.17l5.67.11c2.06,0,3.39.64,4,1.92a2.7,2.7,0,0,0,2.54,1.79h2.24a2.12,2.12,0,0,0,1.26-.49,1.85,1.85,0,0,0,.66-1.6,5.56,5.56,0,0,0-2.63-4.62,10.67,10.67,0,0,0-8.3,1.64c-8.24-4.6-13.72-1.44-14-1.25a7,7,0,0,0-1.84,5,5.66,5.66,0,0,0,1.1,3.47,7.56,7.56,0,0,0,2.87,2.32,20.75,20.75,0,0,0,4,1.38l4.4,1.06,4,1a10.61,10.61,0,0,1,2.93,1.13,2,2,0,0,1,1.11,1.63c0,1.44-1.11,2.16-3.31,2.16l-6.59-.13c-2.06,0-3.4-.64-4-1.92a2.72,2.72,0,0,0-2.54-1.77H127a2.15,2.15,0,0,0-1.28.48,1.83,1.83,0,0,0-.66,1.59c0,2,1,3.64,3.1,5a12.63,12.63,0,0,0,7,2l5.7.11c4.37,0,7.45-.68,9.26-2a6.88,6.88,0,0,0,2.7-5.83A5.93,5.93,0,0,0,150.69,33.22Z"/><path class="cls-2" d="M176.71,43.8l-3.2-5.18a7.37,7.37,0,0,0-4-3.4A5.19,5.19,0,0,0,171.82,34a6.75,6.75,0,0,0,1.69-2.2l2.43-5.12a2.57,2.57,0,0,0,.3-1c0-.49-.31-.73-.94-.73h-3.56a2.78,2.78,0,0,0-1.58.49,3.09,3.09,0,0,0-1.11,1.29l-1.81,3.85a4.5,4.5,0,0,1-4.48,2.54V19.74a1.13,1.13,0,0,0-.32-.84,1.09,1.09,0,0,0-.82-.33H157.4a.61.61,0,0,0-.13,0V29.15s-.2,2.62-1,3.6V44.42s0,5.92-17.33,5.92-17.4-5.91-17.4-5.91V26.65a1.13,1.13,0,0,0-.32-.81,1.12,1.12,0,0,0-.83-.33h-4.22a1.16,1.16,0,0,0-.82.32,1.08,1.08,0,0,0-.33.82V44.43S114.93,56,138.92,56s23.84-11.61,23.84-11.61v-7a5,5,0,0,1,4.48,2.51l2.4,3.91a3.24,3.24,0,0,0,2.88,1.77h3.55a.88.88,0,0,0,.93-.51,1.13,1.13,0,0,0,.05-.32A2,2,0,0,0,176.71,43.8Z"/></g></g></svg>