<svg width="222" height="54" viewBox="0 0 222 54" fill="none" xmlns="http://www.w3.org/2000/svg">
<path d="M57.4515 18.0432C58.1366 17.7866 58.5939 17.103 58.5931 16.3369C58.5922 15.5708 58.1333 14.8884 57.4477 14.6335L29.8677 4.38092C29.4982 4.24347 29.095 4.24347 28.7255 4.38092L1.14554 14.6335C0.45982 14.8883 0.000916889 15.5708 1.37179e-06 16.3369C-0.000914145 17.103 0.456501 17.7866 1.14165 18.0432L12.0671 22.1355V33.9334C12.0671 35.8805 13.9951 37.5272 17.7974 38.8275C21.1117 39.9609 25.1956 40.5851 29.2967 40.5851C33.3977 40.5851 37.4815 39.9609 40.7959 38.8275C44.5983 37.5272 46.5262 35.8807 46.5262 33.9334V22.1355L51.0371 20.4459V36.7939C49.0311 37.5412 47.5896 39.5583 47.5896 41.9246C47.5896 44.2908 49.0311 46.308 51.0371 47.0553C52.7536 47.0553 51.0371 47.0553 54.4703 47.0553C56.4763 46.308 57.9178 44.2909 57.9178 41.9246C57.9178 39.5584 56.4763 37.5412 54.4703 36.7939V19.1598L57.4515 18.0432ZM52.7536 43.7482C51.7992 43.7482 51.0227 42.9301 51.0227 41.9245C51.0227 40.9189 51.7992 40.1008 52.7536 40.1008C53.708 40.1008 54.4845 40.9189 54.4845 41.9245C54.4845 42.9301 53.708 43.7482 52.7536 43.7482ZM29.2965 8.00432L51.7346 16.3456L29.2965 24.75L6.85848 16.3455L29.2965 8.00432ZM43.0929 33.6608C42.7639 34.0102 41.5861 34.8471 38.9278 35.6461C36.0919 36.4985 32.6714 36.9679 29.2965 36.9679C25.9217 36.9679 22.5014 36.4985 19.6653 35.6461C17.007 34.8471 15.8292 34.0103 15.5002 33.6608V23.4214L28.7215 28.3737C28.9075 28.4434 29.102 28.4782 29.2964 28.4782C29.491 28.4782 29.6854 28.4434 29.8714 28.3737L43.0927 23.4214L43.0929 33.6608Z" fill="white"/>
<path d="M71.998 39C71.3003 39 70.747 38.8075 70.338 38.4226C69.9531 38.0377 69.7607 37.4964 69.7607 36.7987V15.7602C69.7607 15.0625 69.9531 14.5212 70.338 14.1363C70.747 13.7514 71.3003 13.5589 71.998 13.5589H85.0253C85.723 13.5589 86.2643 13.7153 86.6492 14.028C87.0341 14.3408 87.2266 14.7859 87.2266 15.3632C87.2266 15.9647 87.0341 16.4338 86.6492 16.7706C86.2643 17.0834 85.723 17.2398 85.0253 17.2398H74.3076V24.2406H84.3036C85.0012 24.2406 85.5425 24.3969 85.9275 24.7097C86.3124 25.0224 86.5049 25.4795 86.5049 26.081C86.5049 26.6584 86.3124 27.1034 85.9275 27.4162C85.5425 27.7289 85.0012 27.8853 84.3036 27.8853H74.3076V35.3192H85.0253C85.723 35.3192 86.2643 35.4876 86.6492 35.8244C87.0341 36.1371 87.2266 36.5942 87.2266 37.1957C87.2266 37.7731 87.0341 38.2181 86.6492 38.5309C86.2643 38.8436 85.723 39 85.0253 39H71.998ZM104.255 13.3785C104.928 13.3785 105.482 13.5709 105.915 13.9559C106.348 14.3408 106.564 14.846 106.564 15.4715V37.0513C106.564 37.7009 106.36 38.2181 105.951 38.603C105.542 38.988 105 39.1804 104.327 39.1804C103.653 39.1804 103.112 38.988 102.703 38.603C102.294 38.2181 102.089 37.7009 102.089 37.0513V36.1492C101.56 37.1355 100.79 37.9054 99.7799 38.4587C98.7936 39.012 97.6629 39.2887 96.3878 39.2887C94.8722 39.2887 93.5129 38.9038 92.31 38.1339C91.1312 37.3641 90.205 36.2815 89.5313 34.8861C88.8818 33.4667 88.557 31.8428 88.557 30.0144C88.557 28.186 88.8818 26.5862 89.5313 25.2149C90.205 23.8436 91.1312 22.7851 92.31 22.0393C93.4888 21.2935 94.8481 20.9206 96.3878 20.9206C97.6629 20.9206 98.7936 21.1852 99.7799 21.7145C100.766 22.2438 101.524 22.9896 102.053 23.9519V15.3993C102.053 14.7979 102.246 14.3167 102.631 13.9559C103.04 13.5709 103.581 13.3785 104.255 13.3785ZM97.5787 35.7883C99.0221 35.7883 100.129 35.2951 100.899 34.3087C101.693 33.3224 102.089 31.915 102.089 30.0866C102.089 28.2582 101.693 26.8629 100.899 25.9005C100.129 24.9142 99.0342 24.421 97.6147 24.421C96.1713 24.421 95.0526 24.9022 94.2587 25.8645C93.4648 26.8268 93.0678 28.2101 93.0678 30.0144C93.0678 31.8428 93.4648 33.2622 94.2587 34.2726C95.0526 35.2831 96.1593 35.7883 97.5787 35.7883ZM124.051 20.9928C124.749 20.9928 125.302 21.1852 125.711 21.5702C126.12 21.9551 126.325 22.4723 126.325 23.1219V37.1235C126.325 37.749 126.108 38.2542 125.675 38.6391C125.266 39.0241 124.725 39.2165 124.051 39.2165C123.402 39.2165 122.885 39.0361 122.5 38.6752C122.115 38.3144 121.922 37.8212 121.922 37.1957V36.2935C121.369 37.2558 120.623 38.0016 119.685 38.5309C118.747 39.0361 117.688 39.2887 116.509 39.2887C112.179 39.2887 110.014 36.8589 110.014 31.9992V23.1219C110.014 22.4723 110.218 21.9551 110.627 21.5702C111.036 21.1852 111.577 20.9928 112.251 20.9928C112.949 20.9928 113.502 21.1852 113.911 21.5702C114.32 21.9551 114.524 22.4723 114.524 23.1219V32.0353C114.524 33.2863 114.777 34.2125 115.282 34.8139C115.787 35.4154 116.581 35.7161 117.664 35.7161C118.915 35.7161 119.913 35.3071 120.659 34.4892C121.429 33.6471 121.814 32.5405 121.814 31.1692V23.1219C121.814 22.4723 122.018 21.9551 122.427 21.5702C122.836 21.1852 123.378 20.9928 124.051 20.9928ZM144.877 20.9928C145.551 20.9928 146.092 21.1852 146.501 21.5702C146.91 21.9551 147.114 22.4723 147.114 23.1219V37.3761C147.114 40.1427 146.344 42.2358 144.805 43.6552C143.265 45.0746 140.992 45.7843 137.984 45.7843C135.362 45.7843 133.173 45.2911 131.417 44.3047C130.527 43.7755 130.081 43.1379 130.081 42.3921C130.081 41.8629 130.202 41.4419 130.442 41.1291C130.707 40.8164 131.044 40.66 131.453 40.66C131.669 40.66 131.934 40.7081 132.247 40.8043C132.559 40.9246 132.884 41.0569 133.221 41.2013C134.087 41.5622 134.857 41.8388 135.531 42.0313C136.228 42.2237 137.022 42.32 137.912 42.32C141.064 42.32 142.64 40.7803 142.64 37.7009V35.3913C142.11 36.3777 141.34 37.1476 140.33 37.7009C139.32 38.2302 138.165 38.4948 136.866 38.4948C135.326 38.4948 133.955 38.1339 132.752 37.4122C131.573 36.6664 130.647 35.6319 129.973 34.3087C129.3 32.9856 128.963 31.4579 128.963 29.7257C128.963 27.9936 129.288 26.4659 129.937 25.1427C130.611 23.7955 131.549 22.761 132.752 22.0393C133.955 21.2935 135.326 20.9206 136.866 20.9206C138.165 20.9206 139.32 21.1973 140.33 21.7506C141.34 22.2799 142.11 23.0377 142.64 24.024V23.0858C142.64 22.4603 142.844 21.9551 143.253 21.5702C143.662 21.1852 144.203 20.9928 144.877 20.9928ZM138.057 34.9944C139.5 34.9944 140.619 34.5253 141.413 33.587C142.231 32.6488 142.64 31.3617 142.64 29.7257C142.64 28.0657 142.231 26.7666 141.413 25.8284C140.619 24.8901 139.5 24.421 138.057 24.421C136.637 24.421 135.519 24.8901 134.701 25.8284C133.883 26.7666 133.474 28.0657 133.474 29.7257C133.474 31.3617 133.883 32.6488 134.701 33.587C135.519 34.5253 136.637 34.9944 138.057 34.9944ZM164.633 20.9928C165.331 20.9928 165.884 21.1852 166.293 21.5702C166.702 21.9551 166.907 22.4723 166.907 23.1219V37.1235C166.907 37.749 166.69 38.2542 166.257 38.6391C165.848 39.0241 165.307 39.2165 164.633 39.2165C163.984 39.2165 163.466 39.0361 163.082 38.6752C162.697 38.3144 162.504 37.8212 162.504 37.1957V36.2935C161.951 37.2558 161.205 38.0016 160.267 38.5309C159.329 39.0361 158.27 39.2887 157.091 39.2887C152.761 39.2887 150.596 36.8589 150.596 31.9992V23.1219C150.596 22.4723 150.8 21.9551 151.209 21.5702C151.618 21.1852 152.159 20.9928 152.833 20.9928C153.531 20.9928 154.084 21.1852 154.493 21.5702C154.902 21.9551 155.106 22.4723 155.106 23.1219V32.0353C155.106 33.2863 155.359 34.2125 155.864 34.8139C156.369 35.4154 157.163 35.7161 158.246 35.7161C159.497 35.7161 160.495 35.3071 161.241 34.4892C162.011 33.6471 162.396 32.5405 162.396 31.1692V23.1219C162.396 22.4723 162.6 21.9551 163.009 21.5702C163.418 21.1852 163.96 20.9928 164.633 20.9928ZM178.169 20.9206C180.623 20.9206 182.44 21.5341 183.619 22.761C184.821 23.9639 185.423 25.8043 185.423 28.2823V37.0874C185.423 37.737 185.23 38.2542 184.845 38.6391C184.461 39 183.931 39.1804 183.258 39.1804C182.632 39.1804 182.115 38.988 181.706 38.603C181.321 38.2181 181.129 37.7129 181.129 37.0874V36.2935C180.72 37.2318 180.07 37.9655 179.18 38.4948C178.314 39.0241 177.303 39.2887 176.149 39.2887C174.97 39.2887 173.899 39.0481 172.937 38.567C171.975 38.0858 171.217 37.4242 170.663 36.5822C170.11 35.7402 169.833 34.8019 169.833 33.7674C169.833 32.4683 170.158 31.4459 170.808 30.7001C171.481 29.9543 172.564 29.413 174.056 29.0762C175.547 28.7394 177.604 28.571 180.226 28.571H181.129V27.741C181.129 26.5621 180.876 25.7081 180.371 25.1788C179.866 24.6255 179.048 24.3488 177.917 24.3488C177.219 24.3488 176.509 24.4571 175.788 24.6736C175.066 24.8661 174.212 25.1548 173.226 25.5397C172.6 25.8524 172.143 26.0088 171.854 26.0088C171.421 26.0088 171.06 25.8524 170.772 25.5397C170.507 25.2269 170.375 24.8179 170.375 24.3127C170.375 23.9038 170.471 23.5549 170.663 23.2662C170.88 22.9535 171.229 22.6648 171.71 22.4001C172.552 21.943 173.55 21.5822 174.705 21.3175C175.884 21.0529 177.039 20.9206 178.169 20.9206ZM177.051 36.0409C178.254 36.0409 179.228 35.6439 179.974 34.85C180.744 34.0321 181.129 32.9856 181.129 31.7105V30.9527H180.479C178.867 30.9527 177.616 31.0249 176.726 31.1692C175.836 31.3135 175.198 31.5662 174.813 31.927C174.428 32.2879 174.236 32.7811 174.236 33.4066C174.236 34.1764 174.501 34.8139 175.03 35.3192C175.583 35.8003 176.257 36.0409 177.051 36.0409ZM198.776 20.9928C199.402 20.9446 199.895 21.077 200.256 21.3897C200.617 21.7025 200.797 22.1716 200.797 22.7971C200.797 23.4467 200.641 23.9278 200.328 24.2406C200.015 24.5533 199.45 24.7578 198.632 24.854L197.549 24.9623C196.13 25.1066 195.083 25.5878 194.41 26.4058C193.76 27.2237 193.435 28.2462 193.435 29.4731V37.0513C193.435 37.749 193.219 38.2903 192.786 38.6752C192.353 39.0361 191.812 39.2165 191.162 39.2165C190.512 39.2165 189.971 39.0361 189.538 38.6752C189.129 38.2903 188.925 37.749 188.925 37.0513V23.0858C188.925 22.4122 189.129 21.8949 189.538 21.5341C189.971 21.1732 190.5 20.9928 191.126 20.9928C191.751 20.9928 192.257 21.1732 192.642 21.5341C193.027 21.8709 193.219 22.3641 193.219 23.0136V24.4571C193.676 23.3985 194.35 22.5806 195.24 22.0032C196.154 21.4258 197.164 21.101 198.271 21.0289L198.776 20.9928ZM216.027 13.3785C216.701 13.3785 217.254 13.5709 217.687 13.9559C218.12 14.3408 218.337 14.846 218.337 15.4715V37.0513C218.337 37.7009 218.132 38.2181 217.724 38.603C217.315 38.988 216.773 39.1804 216.1 39.1804C215.426 39.1804 214.885 38.988 214.476 38.603C214.067 38.2181 213.862 37.7009 213.862 37.0513V36.1492C213.333 37.1355 212.563 37.9054 211.553 38.4587C210.566 39.012 209.436 39.2887 208.161 39.2887C206.645 39.2887 205.286 38.9038 204.083 38.1339C202.904 37.3641 201.978 36.2815 201.304 34.8861C200.655 33.4667 200.33 31.8428 200.33 30.0144C200.33 28.186 200.655 26.5862 201.304 25.2149C201.978 23.8436 202.904 22.7851 204.083 22.0393C205.262 21.2935 206.621 20.9206 208.161 20.9206C209.436 20.9206 210.566 21.1852 211.553 21.7145C212.539 22.2438 213.297 22.9896 213.826 23.9519V15.3993C213.826 14.7979 214.019 14.3167 214.404 13.9559C214.813 13.5709 215.354 13.3785 216.027 13.3785ZM209.351 35.7883C210.795 35.7883 211.902 35.2951 212.671 34.3087C213.465 33.3224 213.862 31.915 213.862 30.0866C213.862 28.2582 213.465 26.8629 212.671 25.9005C211.902 24.9142 210.807 24.421 209.387 24.421C207.944 24.421 206.825 24.9022 206.031 25.8645C205.238 26.8268 204.841 28.2101 204.841 30.0144C204.841 31.8428 205.238 33.2622 206.031 34.2726C206.825 35.2831 207.932 35.7883 209.351 35.7883Z" fill="white"/>
</svg>
