<svg width="78" height="78" viewBox="0 0 78 78" fill="none" xmlns="http://www.w3.org/2000/svg">
<rect opacity="0.2" x="0.75" y="0.75" width="76.5" height="76.5" rx="38.25" fill="white" stroke="#FF7A1A" stroke-width="1.5"/>
<path d="M54 45.6667V32.3334C53.9994 31.7488 53.8451 31.1747 53.5526 30.6686C53.26 30.1626 52.8396 29.7423 52.3333 29.45L40.6667 22.7834C40.1599 22.4908 39.5851 22.3368 39 22.3368C38.4149 22.3368 37.8401 22.4908 37.3333 22.7834L25.6667 29.45C25.1604 29.7423 24.74 30.1626 24.4474 30.6686C24.1549 31.1747 24.0006 31.7488 24 32.3334V45.6667C24.0006 46.2513 24.1549 46.8254 24.4474 47.3314C24.74 47.8375 25.1604 48.2578 25.6667 48.55L37.3333 55.2167C37.8401 55.5093 38.4149 55.6633 39 55.6633C39.5851 55.6633 40.1599 55.5093 40.6667 55.2167L52.3333 48.55C52.8396 48.2578 53.26 47.8375 53.5526 47.3314C53.8451 46.8254 53.9994 46.2513 54 45.6667Z" stroke="#FF7A1A" stroke-width="3" stroke-linecap="round" stroke-linejoin="round"/>
<path d="M24.45 30.6L39 39.0166L53.5499 30.6" stroke="#FF7A1A" stroke-width="3" stroke-linecap="round" stroke-linejoin="round"/>
<path d="M39 55.8V39" stroke="#FF7A1A" stroke-width="3" stroke-linecap="round" stroke-linejoin="round"/>
</svg>
