<svg width="78" height="78" viewBox="0 0 78 78" fill="none" xmlns="http://www.w3.org/2000/svg">
<rect opacity="0.2" x="0.75" y="0.75" width="76.5" height="76.5" rx="38.25" fill="white" stroke="#00AF91" stroke-width="1.5"/>
<path d="M24 49V39C24 35.0218 25.5804 31.2064 28.3934 28.3934C31.2064 25.5804 35.0218 24 39 24C42.9782 24 46.7936 25.5804 49.6066 28.3934C52.4196 31.2064 54 35.0218 54 39V49" stroke="#00AF91" stroke-width="3" stroke-linecap="round" stroke-linejoin="round"/>
<path d="M54 50.6667C54 51.5508 53.6488 52.3986 53.0237 53.0237C52.3986 53.6489 51.5507 54 50.6667 54H49C48.1159 54 47.2681 53.6489 46.643 53.0237C46.0179 52.3986 45.6667 51.5508 45.6667 50.6667V45.6667C45.6667 44.7827 46.0179 43.9348 46.643 43.3097C47.2681 42.6846 48.1159 42.3334 49 42.3334H54V50.6667ZM24 50.6667C24 51.5508 24.3512 52.3986 24.9763 53.0237C25.6014 53.6489 26.4493 54 27.3333 54H29C29.8841 54 30.7319 53.6489 31.357 53.0237C31.9821 52.3986 32.3333 51.5508 32.3333 50.6667V45.6667C32.3333 44.7827 31.9821 43.9348 31.357 43.3097C30.7319 42.6846 29.8841 42.3334 29 42.3334H24V50.6667Z" stroke="#00AF91" stroke-width="3" stroke-linecap="round" stroke-linejoin="round"/>
</svg>
