<svg width="78" height="78" viewBox="0 0 78 78" fill="none" xmlns="http://www.w3.org/2000/svg">
<rect opacity="0.2" x="0.75" y="0.75" width="76.5" height="76.5" rx="38.25" fill="white" stroke="#F15C4C" stroke-width="1.5"/>
<path d="M57.3334 50.6667C57.3334 51.5507 56.9822 52.3986 56.3571 53.0237C55.732 53.6488 54.8841 54 54.0001 54H24.0001C23.116 54 22.2682 53.6488 21.6431 53.0237C21.0179 52.3986 20.6667 51.5507 20.6667 50.6667V32.3333C20.6667 31.4493 21.0179 30.6014 21.6431 29.9763C22.2682 29.3512 23.116 29 24.0001 29H30.6667L34.0001 24H44.0001L47.3334 29H54.0001C54.8841 29 55.732 29.3512 56.3571 29.9763C56.9822 30.6014 57.3334 31.4493 57.3334 32.3333V50.6667Z" stroke="#F15C4C" stroke-width="3" stroke-linecap="round" stroke-linejoin="round"/>
<path d="M38.9999 47.3333C42.6818 47.3333 45.6666 44.3486 45.6666 40.6667C45.6666 36.9848 42.6818 34 38.9999 34C35.318 34 32.3333 36.9848 32.3333 40.6667C32.3333 44.3486 35.318 47.3333 38.9999 47.3333Z" stroke="#F15C4C" stroke-width="3" stroke-linecap="round" stroke-linejoin="round"/>
</svg>
