<svg width="274" height="274" viewBox="0 0 274 274" fill="none" xmlns="http://www.w3.org/2000/svg">
<mask id="mask0" mask-type="alpha" maskUnits="userSpaceOnUse" x="0" y="0" width="274" height="274">
<circle cx="137" cy="137" r="136" fill="#191922" stroke="#8F8FA3" stroke-width="2"/>
</mask>
<g mask="url(#mask0)">
<line x1="-131.848" y1="223.085" x2="219.584" y2="-128.347" stroke="white" stroke-width="2" stroke-linecap="round" stroke-linejoin="round"/>
<line x1="-117.705" y1="237.227" x2="233.727" y2="-114.205" stroke="white" stroke-width="2" stroke-linecap="round" stroke-linejoin="round"/>
<line x1="-103.562" y1="251.369" x2="247.87" y2="-100.063" stroke="white" stroke-width="2" stroke-linecap="round" stroke-linejoin="round"/>
<line x1="-89.4219" y1="265.512" x2="262.01" y2="-85.9205" stroke="white" stroke-width="2" stroke-linecap="round" stroke-linejoin="round"/>
<line x1="-75.2773" y1="279.654" x2="276.155" y2="-71.7784" stroke="white" stroke-width="2" stroke-linecap="round" stroke-linejoin="round"/>
<line x1="9.57422" y1="364.506" x2="361.006" y2="13.0741" stroke="white" stroke-width="2" stroke-linecap="round" stroke-linejoin="round"/>
<line x1="-61.1367" y1="293.796" x2="290.295" y2="-57.6363" stroke="white" stroke-width="2" stroke-linecap="round" stroke-linejoin="round"/>
<line x1="23.7168" y1="378.648" x2="375.149" y2="27.2162" stroke="white" stroke-width="2" stroke-linecap="round" stroke-linejoin="round"/>
<line x1="-46.9941" y1="307.938" x2="304.438" y2="-43.4942" stroke="white" stroke-width="2" stroke-linecap="round" stroke-linejoin="round"/>
<line x1="37.8594" y1="392.791" x2="389.291" y2="41.3588" stroke="white" stroke-width="2" stroke-linecap="round" stroke-linejoin="round"/>
<line x1="-32.8516" y1="322.08" x2="318.581" y2="-29.3521" stroke="white" stroke-width="2" stroke-linecap="round" stroke-linejoin="round"/>
<line x1="52" y1="406.933" x2="403.432" y2="55.5009" stroke="white" stroke-width="2" stroke-linecap="round" stroke-linejoin="round"/>
<line x1="-18.7109" y1="336.222" x2="332.721" y2="-15.21" stroke="white" stroke-width="2" stroke-linecap="round" stroke-linejoin="round"/>
<line x1="-4.56641" y1="350.364" x2="346.866" y2="-1.06796" stroke="white" stroke-width="2" stroke-linecap="round" stroke-linejoin="round"/>
</g>
</svg>
